<?xml version="1.0" encoding="UTF-8"?>
<svg id="Capa_1" xmlns="http://www.w3.org/2000/svg" version="1.1" viewBox="0 0 285 55.26">
  <!-- Generator: Adobe Illustrator 29.4.0, SVG Export Plug-In . SVG Version: 2.1.0 Build 152)  -->
  <defs>
    <style>
      .st0 {
        fill: #ced500;
      }

      .st1 {
        fill: #1d3d90;
      }

      .st2 {
        fill: #5d76b8;
      }

      .st3 {
        fill: #1d3d91;
      }

      .st4 {
        fill: #bcc1e3;
      }
    </style>
  </defs>
  <g>
    <g>
      <path class="st0" d="M233.49,37.88v-.03c0-2.84,2.28-5.13,5.33-5.13s5.3,2.27,5.3,5.1v.03c0,2.84-2.28,5.13-5.33,5.13s-5.3-2.26-5.3-5.1ZM241.33,37.88v-.03c0-1.42-1.03-2.67-2.54-2.67s-2.5,1.22-2.5,2.64v.03c0,1.42,1.03,2.66,2.52,2.66s2.51-1.21,2.51-2.64Z"/>
      <path class="st0" d="M260.09,32.92h-3.53c-.16,0-.28.12-.28.28v9.31c0,.16.12.28.28.28h3.47c3.56,0,5.63-2.12,5.63-4.96v-.03c0-2.85-2.05-4.88-5.57-4.88ZM262.85,37.87c0,1.59-1.08,2.49-2.72,2.49h-1.11v-5.02h1.11c1.64,0,2.72.92,2.72,2.5v.03Z"/>
      <path class="st0" d="M274.64,40.46h-5.03v-1.56h4.46c.15,0,.27-.12.27-.28v-1.6c0-.16-.13-.28-.28-.28h-4.46v-1.49h4.96c.16,0,.27-.12.27-.27v-1.77c0-.16-.12-.28-.28-.28h-7.37c-.15,0-.28.12-.28.28v9.32c0,.14.13.27.28.27h7.44c.16,0,.28-.12.28-.27v-1.78c0-.15-.12-.27-.27-.28Z"/>
      <path class="st0" d="M254.42,42.79c.15,0,.27-.12.27-.27v-9.32c0-.16-.12-.28-.28-.28h-2.14c-.15,0-.27.12-.27.28v4.94l-3.94-5.04c-.1-.11-.23-.18-.35-.18h-2.05c-.15,0-.28.13-.28.28v9.31c0,.15.12.27.28.27h2.15c.15,0,.27-.12.28-.27v-5.13s4.07,5.21,4.11,5.25c.09.09.23.15.34.15h1.88Z"/>
      <path class="st0" d="M280.33,36.65c-1.3-.3-1.73-.5-1.72-.96v-.02c0-.27.26-.65,1.01-.64.75,0,1.59.23,2.36.72.05.03.09.05.15.08.13.09.3.06.4-.06l.89-1.25h0l.06-.08.1-.15c.04-.05.06-.11.05-.18,0-.06-.03-.11-.07-.16-1.08-.86-2.28-1.17-3.87-1.18-2.3-.02-3.83,1.24-3.84,3.18v.03c0,2.06,1.76,2.61,3.71,3.07,1.36.32,1.68.55,1.68.95v.03c0,.42-.42.68-1.15.68-.97,0-1.94-.28-2.79-.9,0,0-.1-.06-.15-.1-.12-.1-.3-.08-.41.04l-1.15,1.4c-.05.06-.08.13-.06.21.01.07.04.13.09.17,1.17,1,3.01,1.45,4.38,1.45,2.44,0,4.02-1.27,4.02-3.27v-.03c0-1.94-1.78-2.59-3.67-3.02Z"/>
      <path class="st0" d="M232.97,40.78c0-.08-.05-.14-.11-.19,0,0-1.6-1.16-1.62-1.16-.13-.07-.29-.04-.38.07-.04.05-.17.19-.19.21-.49.48-1.04.78-1.85.78-1.38,0-2.35-1.15-2.35-2.64v-.03c0-1.44.97-2.61,2.35-2.61.86,0,1.47.38,2,.97.11.08.26.09.38.01l1.62-1.26c.05-.05.09-.1.1-.17.01-.07,0-.15-.05-.2-.88-1.1-2.13-1.84-4.03-1.84-2.99,0-5.2,2.25-5.2,5.13v.03c0,2.95,2.27,5.1,5.09,5.1,2.05,0,3.28-.83,4.19-1.99.04-.06.06-.14.05-.21Z"/>
    </g>
    <path class="st0" d="M210.32,42.44l-3.92-9.23c-.1-.16-.27-.27-.42-.28h-1.93c-.15,0-.33.12-.43.28l-3.92,9.23c-.08.18.03.36.23.36h2.11c.26,0,.4-.17.47-.33l.58-1.43h3.77l.59,1.43c.07.16.22.32.48.33h2.16c.2,0,.31-.18.23-.36ZM203.89,38.94l1.1-2.78,1.09,2.78h-2.19Z"/>
    <path class="st0" d="M199,40.4h-4.5v-7.2c0-.15-.12-.27-.27-.28h-2.18c-.16,0-.28.12-.28.28v9.31c0,.15.13.27.27.28h6.96c.15,0,.26-.11.28-.25v-1.89c-.01-.14-.13-.25-.28-.25Z"/>
    <path class="st0" d="M215.36,36.65c-1.29-.31-1.72-.5-1.72-.96v-.02c0-.27.26-.65,1.01-.64.74,0,1.6.23,2.36.72.05.03.09.05.14.08.13.09.31.06.41-.06l.9-1.25h0l.06-.08.1-.14c.04-.05.05-.11.04-.18,0-.06-.03-.11-.07-.16-1.07-.86-2.28-1.17-3.86-1.18-2.3-.02-3.84,1.24-3.85,3.18v.03c0,2.06,1.75,2.61,3.71,3.07,1.36.32,1.68.55,1.68.95v.03c0,.42-.42.68-1.15.68-.96,0-1.94-.28-2.79-.9,0,0-.1-.06-.15-.1-.13-.1-.31-.09-.42.04l-1.15,1.4c-.05.06-.07.13-.05.2,0,.07.04.13.09.18,1.17,1,3.01,1.45,4.37,1.45,2.44,0,4.01-1.27,4.03-3.27v-.03c0-1.94-1.77-2.59-3.68-3.02Z"/>
    <g>
      <path class="st0" d="M149.28,32.26h-1.52c-.07,0-.13-.04-.16-.09-.03-.06-.03-.14,0-.18l1.24-2.2c.04-.06.13-.09.2-.06l2.05.65c.07.01.12.07.13.14.02.07-.01.13-.07.17l-1.77,1.55s-.07.04-.1.04Z"/>
      <path class="st0" d="M149.9,42.55v-9.35c0-.15-.12-.27-.27-.28h-2.22c-.14,0-.25.12-.25.25v9.35c0,.15.12.27.27.28h2.23c.14,0,.24-.12.24-.26Z"/>
    </g>
    <path class="st0" d="M165.26,42.55v-9.35c0-.15-.12-.27-.27-.28h-2.22c-.15,0-.25.12-.25.25v9.35c0,.15.11.27.27.28h2.23c.13,0,.24-.12.24-.26Z"/>
    <path class="st0" d="M160.59,42.8c.15,0,.28-.12.28-.27v-9.33c0-.15-.13-.28-.28-.28h-2.15c-.15,0-.27.12-.27.28v4.95l-3.93-5.05c-.11-.11-.24-.18-.35-.18h-2.06c-.16,0-.28.13-.28.29v9.32c0,.15.13.27.28.27h2.15c.15,0,.28-.12.28-.27v-5.14s4.07,5.22,4.11,5.26c.1.09.23.15.34.15h1.88Z"/>
    <path class="st0" d="M145.81,40.4h-4.51v-7.2c0-.15-.12-.27-.26-.28h-2.19c-.15,0-.28.12-.28.28v9.32c0,.15.12.27.27.28h6.97c.14,0,.25-.12.27-.26v-1.9c-.02-.14-.14-.25-.27-.25Z"/>
    <path class="st0" d="M186.82,42.44l-3.93-9.23c-.1-.16-.27-.27-.42-.28h-1.94c-.15,0-.32.12-.42.28l-3.92,9.23c-.08.18.03.36.23.36h2.1c.26,0,.41-.17.47-.33l.59-1.43h3.76l.6,1.43c.06.16.21.32.47.33h2.16c.2,0,.31-.18.24-.36ZM180.39,38.94l1.11-2.78,1.09,2.78h-2.2Z"/>
    <path class="st0" d="M175.91,40.79c-.01-.08-.05-.14-.11-.19,0,0-1.61-1.16-1.62-1.16-.13-.07-.28-.04-.38.08-.04.04-.17.18-.19.2-.49.47-1.04.78-1.85.78-1.38,0-2.35-1.16-2.35-2.64v-.03c0-1.44.97-2.62,2.35-2.62.86,0,1.47.38,2,.97.11.09.26.09.38.01l1.62-1.26c.05-.04.08-.1.1-.17,0-.07,0-.15-.04-.21-.87-1.1-2.13-1.84-4.03-1.84-2.98,0-5.2,2.26-5.2,5.13v.03c0,2.95,2.27,5.11,5.09,5.11,2.05,0,3.28-.83,4.2-2,.05-.06.06-.13.05-.2Z"/>
    <path class="st0" d="M137.44,40.79c-.01-.08-.06-.14-.12-.19,0,0-1.61-1.16-1.62-1.16-.13-.07-.29-.04-.38.08-.04.04-.17.18-.2.2-.48.47-1.04.78-1.84.78-1.38,0-2.35-1.16-2.35-2.64v-.03c0-1.44.97-2.62,2.35-2.62.86,0,1.47.38,2,.97.1.09.26.09.37.01l1.63-1.26s.09-.1.09-.17c.02-.07,0-.15-.05-.21-.87-1.1-2.13-1.84-4.02-1.84-2.98,0-5.2,2.26-5.2,5.13v.03c0,2.95,2.27,5.11,5.09,5.11,2.05,0,3.29-.83,4.2-2,.04-.06.06-.13.05-.2Z"/>
  </g>
  <g>
    <path class="st0" d="M99.42,40.4h-4.5v-7.2c0-.15-.12-.27-.27-.28h-2.19c-.15,0-.28.12-.28.28v9.31c0,.15.12.27.28.28h6.96c.14,0,.26-.11.27-.25v-1.9c0-.14-.13-.24-.27-.24Z"/>
    <path class="st0" d="M123.31,40.4h-4.51v-7.2c0-.15-.11-.27-.26-.28h-2.19c-.15,0-.28.12-.28.28v9.31c0,.15.12.27.28.28h6.96c.15,0,.26-.11.28-.25v-1.89c-.01-.14-.13-.25-.28-.25Z"/>
    <path class="st0" d="M90.56,42.55v-9.35c0-.16-.12-.27-.27-.28h-2.23c-.14,0-.25.12-.25.25v9.35c0,.15.12.27.27.28h2.24c.13,0,.24-.12.24-.26Z"/>
    <path class="st0" d="M103.49,42.55v-9.35c0-.16-.12-.27-.28-.28h-2.22c-.14,0-.24.12-.24.25v9.35c0,.15.11.27.26.28h2.23c.14,0,.25-.12.25-.26Z"/>
    <path class="st0" d="M115.1,42.44l-3.93-9.23c-.1-.16-.26-.27-.42-.27h-1.93c-.15,0-.32.12-.42.27l-3.92,9.23c-.08.18.02.36.23.36h2.1c.26,0,.41-.17.48-.33l.58-1.43h3.77l.59,1.43c.07.16.21.32.48.33h2.16c.2,0,.31-.18.23-.36ZM108.66,38.94l1.1-2.78,1.08,2.78h-2.19Z"/>
    <path class="st0" d="M86.43,35.32c.15,0,.27-.12.27-.26v-1.87c0-.15-.12-.26-.27-.26h-7.34c-.15,0-.28.12-.28.28v9.32c0,.15.12.27.27.27h2.19c.15,0,.27-.12.27-.27v-3.25h4.4c.15,0,.27-.13.27-.28v-1.71c0-.15-.13-.28-.28-.28h-4.39v-1.68h4.89Z"/>
  </g>
  <path class="st3" d="M197.74,23.33c-.02-.11-.08-.2-.16-.26,0,0-2.27-1.63-2.29-1.65-.18-.09-.4-.05-.54.11-.06.07-.25.25-.28.29-.68.68-1.46,1.1-2.61,1.1-1.96,0-3.34-1.64-3.34-3.73v-.04c0-2.04,1.38-3.7,3.34-3.7,1.22,0,2.08.54,2.83,1.38.15.12.37.13.54.01l2.3-1.78c.07-.07.12-.15.14-.24.02-.11,0-.22-.07-.3-1.23-1.55-3.01-2.61-5.7-2.61-4.23,0-7.36,3.19-7.36,7.27v.04c0,4.17,3.21,7.23,7.2,7.23,2.91,0,4.65-1.18,5.94-2.83.06-.08.09-.19.07-.29Z"/>
  <path class="st1" d="M223.86,23.33c-.02-.11-.07-.2-.17-.26,0,0-2.28-1.63-2.3-1.65-.18-.09-.4-.05-.54.11-.06.07-.24.25-.28.29-.69.68-1.46,1.1-2.62,1.1-1.95,0-3.33-1.64-3.33-3.73v-.04c0-2.04,1.38-3.7,3.33-3.7,1.22,0,2.09.54,2.83,1.38.16.12.37.13.54.01l2.3-1.78c.07-.07.12-.15.14-.24.02-.11-.01-.22-.07-.3-1.23-1.55-3.01-2.61-5.69-2.61-4.23,0-7.37,3.19-7.37,7.27v.04c0,4.17,3.22,7.23,7.2,7.23,2.91,0,4.65-1.18,5.95-2.83.06-.08.08-.19.07-.29Z"/>
  <path class="st3" d="M209.85,22.78h-6.38v-10.2c0-.21-.17-.38-.37-.39h-3.1c-.22,0-.4.17-.4.39v13.2c0,.21.17.38.38.39h9.86c.21,0,.37-.16.4-.36v-2.69c-.03-.2-.19-.35-.39-.35Z"/>
  <path class="st3" d="M149.4,19.23v-.04c0-4.01,3.24-7.27,7.54-7.27s7.51,3.22,7.51,7.23v.04c0,4-3.24,7.27-7.55,7.27s-7.5-3.22-7.5-7.23ZM160.5,19.23v-.04c0-2.02-1.46-3.78-3.59-3.78s-3.53,1.72-3.53,3.74v.04c0,2.01,1.45,3.77,3.57,3.77s3.55-1.72,3.55-3.73Z"/>
  <path class="st3" d="M147.93,25.75v-.25h0l-2.89-4.21c1.73-.73,2.86-2.14,2.86-4.28v-.03c0-1.37-.42-2.45-1.23-3.24-.93-.95-2.41-1.51-4.53-1.51h-6.19c-.2,0-.37.16-.38.35v12.92h0v.24c0,.22.17.4.39.4h3.07c.21,0,.39-.18.39-.39v-.25h0v-3.57h1.69l2.38,3.59h0s.28.36.34.41c.13.13.31.21.46.21h3.25c.21,0,.38-.18.38-.39ZM144.03,17.26c0,1.01-.75,1.65-2.06,1.65h-2.54v-3.34h2.52c1.3,0,2.09.56,2.09,1.65v.04Z"/>
  <path class="st3" d="M102.71,22.88h-7.12v-2.22h6.31c.22,0,.39-.17.39-.39v-2.27c0-.21-.18-.39-.4-.39h-6.3v-2.11h7.02c.21,0,.39-.18.39-.4v-2.5c0-.22-.18-.4-.4-.4h-10.44c-.22,0-.4.17-.4.4v13.2c.02.2.18.37.4.37h10.55c.22,0,.39-.17.39-.39v-2.51c0-.22-.17-.38-.38-.39Z"/>
  <path class="st3" d="M84.62,17.47c-1.83-.42-2.43-.7-2.42-1.36v-.04c0-.39.36-.91,1.41-.9,1.05,0,2.25.33,3.34,1.01.07.04.13.07.2.12.19.12.43.08.58-.09,0,0,1.26-1.77,1.26-1.77h0l.09-.11.14-.2c.05-.08.07-.17.06-.26,0-.09-.04-.16-.1-.23-1.51-1.21-3.2-1.65-5.45-1.66-3.25-.02-5.42,1.76-5.43,4.48v.05c0,2.9,2.47,3.68,5.23,4.33,1.92.46,2.38.79,2.38,1.35v.04c0,.59-.6.96-1.63.96-1.36,0-2.73-.4-3.94-1.27,0,0-.13-.09-.21-.14-.18-.14-.43-.12-.59.05l-1.63,1.97c-.07.09-.09.19-.08.29,0,.1.06.18.13.24,1.64,1.42,4.24,2.05,6.16,2.05,3.44.01,5.67-1.79,5.68-4.61v-.03c0-2.75-2.5-3.66-5.19-4.26Z"/>
  <path class="st3" d="M172.32,17.47c-1.83-.42-2.43-.7-2.42-1.36v-.04c0-.39.37-.91,1.42-.9,1.05,0,2.25.33,3.34,1.01.07.04.13.07.2.12.18.12.43.08.57-.09,0,0,1.27-1.77,1.27-1.77h0l.08-.11.14-.2c.05-.08.08-.17.06-.26,0-.09-.04-.16-.1-.23-1.51-1.21-3.2-1.65-5.45-1.66-3.25-.02-5.42,1.76-5.43,4.49v.04c0,2.9,2.47,3.68,5.23,4.33,1.92.45,2.38.79,2.38,1.35v.04c0,.59-.6.96-1.63.96-1.36,0-2.73-.4-3.94-1.27,0,0-.14-.09-.21-.14-.18-.14-.43-.12-.58.05l-1.63,1.98c-.07.08-.09.19-.08.3,0,.1.05.18.13.24,1.65,1.42,4.24,2.05,6.17,2.05,3.44.01,5.67-1.79,5.68-4.62v-.03c0-2.75-2.49-3.66-5.19-4.26Z"/>
  <path class="st3" d="M118.2,18.4c0-.21-.17-.38-.37-.39h-5.7c-.2.02-.36.18-.36.39v2.07c.02.21.19.37.4.37h2.36v1.7c-.59.38-1.3.58-2.24.58-2.22,0-3.8-1.62-3.8-3.88v-.04c0-2.14,1.55-3.84,3.58-3.84,1.14,0,2.02.33,2.85.92h0s.06.05.06.05c.07.05.14.11.21.16.16.08.35.05.47-.09l.11-.12,1.53-1.83h0s.08-.1.08-.1l.08-.11c.13-.16.12-.4-.04-.54l-.13-.11c-1.39-1.07-3.02-1.69-5.24-1.69-4.34,0-7.53,3.2-7.53,7.28v.04c0,4.23,3.25,7.23,7.61,7.23,2.54,0,4.6-.94,6.07-2.16v-5.89Z"/>
  <path class="st3" d="M132.84,12.2h-3.16c-.22,0-.4.18-.4.4v.24h0v7.25c0,1.96-1.02,2.89-2.58,2.89s-2.59-.96-2.59-2.99v-7.41c0-.22-.18-.38-.39-.38h-3.17c-.21,0-.38.18-.38.39v7.48c0,4.39,2.5,6.41,6.49,6.41s6.57-1.98,6.57-6.51v-7.39c0-.21-.18-.38-.39-.39Z"/>
  <path class="st4" d="M57.95,34.87c5.24-9.25,6.06-20.97,4.1-26.17-2.73-7.25-11.05-2.28-19.15,11.01h.02s7.89,0,7.89,0c.36,0,.69.12.99.37.63.54.75,1.52.38,2.5h0s-4.97,12.27-4.97,12.27h0l-.02.03h10.76Z"/>
  <path class="st3" d="M5.21,19.69C-.04,28.94-.88,40.66,1.08,45.86c2.72,7.25,11.04,2.3,19.16-10.97h-.02l-7.89-.03c-.36,0-.68-.12-.98-.37-.63-.54-.75-1.52-.38-2.5h0l4.99-12.26h0s.02-.03.02-.03H5.21Z"/>
  <path class="st2" d="M47.75,7.99l2.67-6.44s-15.14,0-15.19,0c-11.96,0-25.23,8.9-24.63,12.58.5,3.06,7.77,5.22,15.67,5.84l2.25-5.83c.77-1.84,2.87-3.18,5.32-3.18h12.69s1.22-2.94,1.22-2.94c0,0,0-.02,0-.03Z"/>
  <path class="st0" d="M15.49,47.27l-2.68,6.44h15.19c11.96,0,25.23-8.91,24.63-12.59-.5-3.06-7.77-5.22-15.67-5.84l-2.25,5.84c-.77,1.84-2.87,3.18-5.33,3.18h-12.69s-1.22,2.94-1.22,2.94c0,.01,0,.02,0,.03Z"/>
</svg>