<?xml version="1.0" encoding="UTF-8" standalone="no"?>
<svg
   id="Layer_1"
   data-name="Layer 1"
   width="1000"
   height="923.51788"
   viewBox="0 0 1000 923.51788"
   version="1.1"
   xmlns:xlink="http://www.w3.org/1999/xlink"
   xmlns="http://www.w3.org/2000/svg"
   xmlns:svg="http://www.w3.org/2000/svg">
  <defs
     id="defs2">
    <style
       id="style1">
      .cls-1 {
        fill: url(#linear-gradient-2);
      }

      .cls-2 {
        fill: #0050b2;
      }

      .cls-3 {
        fill: #ffc200;
      }

      .cls-4 {
        fill: url(#linear-gradient);
      }
    </style>
    <linearGradient
       id="linear-gradient"
       x1="24.530001"
       y1="830.48999"
       x2="1240.21"
       y2="830.48999"
       gradientUnits="userSpaceOnUse">
      <stop
         offset="0"
         stop-color="#4047ff"
         id="stop1" />
      <stop
         offset="1"
         stop-color="#04006c"
         id="stop2" />
    </linearGradient>
    <linearGradient
       id="linear-gradient-2"
       x1="104.08"
       y1="301.14001"
       x2="1158.78"
       y2="301.14001"
       xlink:href="#linear-gradient"
       gradientTransform="scale(0.79067634)" />
    <linearGradient
       xlink:href="#linear-gradient"
       id="linearGradient38"
       gradientUnits="userSpaceOnUse"
       x1="24.530001"
       y1="830.48999"
       x2="1240.21"
       y2="830.48999"
       gradientTransform="scale(0.79067634)" />
  </defs>
  <path
     class="cls-4"
     d="m 980.5968,529.13642 c 0.0791,1.23346 -0.55347,2.2218 -1.53391,2.84644 -5.7245,3.57386 -16.17724,7.70909 -36.90086,13.06197 -13.2043,3.40782 -28.71737,6.6575 -46.34945,9.7016 5.15521,-10.10484 10.12066,-20.31248 14.80937,-30.64662 -18.54927,-4.87056 -37.17761,-9.40114 -55.85338,-13.59963 -17.52139,37.22504 -40.07148,76.47422 -69.16046,115.502 -3.29712,4.48314 -6.63378,8.89511 -9.98624,13.23592 -0.36371,0.4665 -0.71952,0.91719 -1.07532,1.37578 -1.32834,1.69996 -2.64877,3.39991 -3.99292,5.08405 -0.42696,0.54557 -0.86184,1.06741 -1.29671,1.61298 -1.26508,1.58135 -2.53016,3.17061 -3.80315,4.73615 -2.54598,3.13899 -5.12358,6.22262 -7.70119,9.28254 -2.59342,3.07573 -5.19474,6.12774 -7.81188,9.12441 -0.56929,0.65626 -1.13857,1.29671 -1.71577,1.94506 -1.1702,1.33624 -2.34831,2.67249 -3.51851,3.99292 -0.36371,0.40324 -0.71951,0.79858 -1.08322,1.20182 -1.38369,1.54973 -2.78319,3.09155 -4.17478,4.62546 -0.37161,0.41115 -0.75114,0.8144 -1.12276,1.22555 -1.38368,1.50228 -2.76736,3.01248 -4.15105,4.49895 -0.21348,0.22929 -0.44278,0.45859 -0.65626,0.68789 -1.54182,1.65251 -3.08364,3.29712 -4.63336,4.918 -0.91719,0.96463 -1.83437,1.90553 -2.75156,2.86225 -0.85393,0.88556 -1.70786,1.77902 -2.55388,2.65667 -0.9409,0.97254 -1.88181,1.91344 -2.82271,2.87807 -0.83812,0.84602 -1.67624,1.70786 -2.51436,2.53807 -0.89346,0.90137 -1.77902,1.77902 -2.67248,2.67248 -0.89347,0.88556 -1.77112,1.77112 -2.65667,2.64086 -0.62464,0.61673 -1.24927,1.21764 -1.866,1.82646 -1.16229,1.13858 -2.32459,2.27715 -3.48688,3.39991 -0.1186,0.1186 -0.23721,0.2293 -0.36371,0.3479 -1.66042,1.60507 -3.31294,3.19433 -4.97336,4.76778 -0.41115,0.38743 -0.8223,0.76695 -1.23345,1.15439 -1.36787,1.2967 -2.75156,2.59341 -4.11943,3.87431 -0.0949,0.0791 -0.18185,0.16604 -0.26883,0.2372 -1.69204,1.57345 -3.37618,3.13108 -5.07614,4.6729 -0.31627,0.29255 -0.64045,0.5851 -0.95672,0.87765 -1.45484,1.32834 -2.91759,2.64086 -4.37244,3.94548 -0.71161,0.63254 -1.41531,1.25717 -2.13482,1.88971 -1.05951,0.94881 -2.13483,1.89762 -3.20224,2.83062 -0.76696,0.67998 -1.54182,1.34415 -2.30878,2.01623 -1.00416,0.87765 -2.01622,1.7553 -3.01247,2.62504 -0.55348,0.47441 -1.09904,0.94091 -1.65252,1.3995 -1.22555,1.04369 -2.44319,2.1032 -3.66083,3.13108 -0.54557,0.45859 -1.07532,0.90137 -1.61298,1.35206 -1.23345,1.03578 -2.459,2.07947 -3.68455,3.09154 -0.45069,0.37952 -0.90137,0.74324 -1.35996,1.11485 -1.30462,1.08323 -2.60133,2.15855 -3.90595,3.22596 -0.593,0.49022 -1.18601,0.96463 -1.77902,1.43903 -1.15438,0.94882 -2.31668,1.88972 -3.47107,2.81481 -0.61672,0.49813 -1.23345,0.98044 -1.85018,1.47066 -1.12276,0.90137 -2.24552,1.79483 -3.36037,2.68039 -1.01207,0.79859 -2.03204,1.58926 -3.0362,2.37994 -0.71952,0.56138 -1.43113,1.12276 -2.14273,1.68414 -0.95672,0.72742 -1.88972,1.44694 -2.83853,2.17436 -0.78277,0.59301 -1.55763,1.20183 -2.3404,1.79483 -0.72743,0.56138 -1.44694,1.09904 -2.17436,1.65252 -0.98044,0.74323 -1.96879,1.49438 -2.94923,2.2297 -0.53766,0.40325 -1.06741,0.79859 -1.61298,1.20183 -1.16229,0.86975 -2.32458,1.73949 -3.48688,2.59342 -0.48231,0.35581 -0.95672,0.6958 -1.43112,1.0516 -1.20183,0.87765 -2.40366,1.7553 -3.59758,2.62505 -0.79858,0.5851 -1.59717,1.15438 -2.39575,1.73158 -0.87765,0.62463 -1.74739,1.26508 -2.61714,1.88971 -0.71161,0.50604 -1.4074,0.99626 -2.11901,1.49438 -0.94881,0.67208 -1.89762,1.35206 -2.83853,2.01623 -0.68789,0.49022 -1.35996,0.95672 -2.05576,1.43112 -0.95672,0.67208 -1.92134,1.35206 -2.87806,2.00832 -0.3479,0.24511 -0.69579,0.49022 -1.0516,0.72742 -1.27299,0.87765 -2.53807,1.7474 -3.79525,2.60923 -0.3558,0.24511 -0.7116,0.48232 -1.06741,0.71952 -1.24136,0.85393 -2.49063,1.70786 -3.72408,2.53016 -0.5851,0.39534 -1.1623,0.77487 -1.7474,1.1623 -0.99625,0.67207 -2.00832,1.34415 -2.99666,2.00041 -0.68789,0.45859 -1.35997,0.90928 -2.05576,1.35996 -0.87765,0.5772 -1.7474,1.15439 -2.61714,1.73158 -0.60091,0.38743 -1.20183,0.77487 -1.79483,1.1623 -0.94882,0.60882 -1.89763,1.23345 -2.83853,1.83437 -0.35581,0.22929 -0.7037,0.45068 -1.05951,0.67998 -1.16229,0.74323 -2.33249,1.49438 -3.48688,2.22971 -0.51394,0.32417 -1.01997,0.64044 -1.53391,0.97253 -0.97254,0.60882 -1.95297,1.23345 -2.9176,1.84227 -0.79068,0.49813 -1.57345,0.97253 -2.35622,1.45485 -0.67998,0.43487 -1.37577,0.86974 -2.06366,1.2888 -0.62463,0.38743 -1.24927,0.76696 -1.8739,1.15439 -0.8144,0.50603 -1.64461,1.00416 -2.45901,1.50228 -0.48231,0.29255 -0.95672,0.5851 -1.43112,0.86975 -0.94881,0.5851 -1.88972,1.15438 -2.82272,1.71576 -0.37161,0.22139 -0.71951,0.43488 -1.08322,0.64836 -1.02788,0.60882 -2.05576,1.23345 -3.06783,1.83437 -0.56928,0.33208 -1.12276,0.65626 -1.68414,0.98834 -0.80649,0.47441 -1.62088,0.95672 -2.41156,1.42322 -0.41115,0.2372 -0.80649,0.4665 -1.21764,0.7037 -0.92509,0.54557 -1.85809,1.08323 -2.77528,1.62089 -0.45859,0.26092 -0.90927,0.52185 -1.35996,0.78277 -0.85393,0.49812 -1.71577,0.98044 -2.54598,1.47066 -0.30836,0.18185 -0.60882,0.34789 -0.92509,0.52975 -0.97253,0.55347 -1.94506,1.09904 -2.89387,1.64461 -0.2293,0.13441 -0.4586,0.25301 -0.67998,0.37952 -1.01207,0.5851 -2.03204,1.14648 -3.01248,1.70786 -0.45859,0.24511 -0.90137,0.49813 -1.35206,0.74324 -0.75905,0.42696 -1.5181,0.85393 -2.26133,1.26508 -0.55348,0.30046 -1.07532,0.59301 -1.61298,0.89346 -0.63254,0.34 -1.27299,0.6958 -1.88972,1.03579 -0.59301,0.32418 -1.17811,0.64045 -1.76321,0.96463 -0.54556,0.30045 -1.09904,0.60091 -1.6367,0.90137 -0.43487,0.22929 -0.84602,0.45859 -1.27299,0.67998 -0.67998,0.37162 -1.35996,0.73533 -2.03203,1.09904 -1.79484,0.96462 -3.51851,1.88181 -5.21056,2.77527 -0.33999,0.18186 -0.68789,0.37162 -1.02788,0.54557 -0.75905,0.40324 -1.49438,0.79068 -2.22971,1.17811 -0.22929,0.1265 -0.4665,0.24511 -0.68789,0.36371 -0.86183,0.45068 -1.69995,0.89346 -2.52225,1.32043 -0.0949,0.0553 -0.19767,0.11069 -0.30046,0.15813 -2.41156,1.26508 -4.66499,2.42738 -6.784,3.51061 -2.65668,1.35996 -5.08405,2.60132 -7.25051,3.70827 -0.0791,0.0395 -0.16604,0.0791 -0.2372,0.1186 C 457.37464,839.06574 318.51606,769.4704 212.91333,625.99428 191.97622,597.90154 174.45483,569.71393 159.73244,542.23793 v 0 c -1.40741,-2.63295 -2.799,-5.25009 -4.15106,-7.87514 -0.0237,-0.0395 -0.0395,-0.0791 -0.0632,-0.1186 -1.2809,-2.48272 -2.53807,-4.94172 -3.77943,-7.40863 -0.1107,-0.20558 -0.21349,-0.41906 -0.32418,-0.63255 -1.12276,-2.2297 -2.2218,-4.46732 -3.31293,-6.69702 -0.19767,-0.39534 -0.39534,-0.79859 -0.5851,-1.19393 -1.22555,-2.52225 -2.44319,-5.05242 -3.6213,-7.56677 -18.62834,4.2064 -37.20923,8.72907 -55.711057,13.60754 4.609643,10.16019 9.496023,20.18597 14.548447,30.12477 -17.213027,-3.00457 -32.370292,-6.20681 -45.289944,-9.55928 -20.296661,-5.2659 -30.954978,-9.89926 -36.347391,-12.88802 -0.679982,-0.37162 -1.439031,-1.2888 -1.605073,-2.05576 -0.229296,-1.09113 0.118601,-2.16645 0.940905,-2.90178 2.798994,-2.49854 8.871388,-3.42363 17.473947,-6.91051 31.176368,-9.29045 62.574126,-17.60837 94.122116,-24.97747 0,0 0,-0.0158 0,-0.0158 0.64044,-0.15814 1.29671,-0.28465 1.93715,-0.44278 6.53099,-1.51019 13.06988,-2.99666 19.61668,-4.4357 1.17811,-0.25301 2.35622,-0.50603 3.53433,-0.75904 5.94588,-1.28881 11.88386,-2.53808 17.83765,-3.76362 0.8144,-0.16605 1.6288,-0.3479 2.44319,-0.51394 0.0316,0 0.0712,-0.0158 0.1107,-0.0237 0.37162,-0.0791 0.74324,-0.15023 1.11485,-0.21349 6.57843,-1.33624 13.16476,-2.62504 19.759,-3.87431 1.49438,-0.28464 2.98876,-0.56929 4.48314,-0.83812 6.35704,-1.19392 12.71408,-2.34831 19.08693,-3.46316 0.37161,-0.0632 0.73533,-0.13442 1.10694,-0.19767 h 0.0237 c 0.087,-0.0158 0.18186,-0.0316 0.26093,-0.0474 7.7249,-1.34415 15.46563,-2.60923 23.20635,-3.83478 1.18601,-0.18976 2.37203,-0.37952 3.55804,-0.57719 7.44027,-1.1623 14.88053,-2.26134 22.32079,-3.31294 1.3995,-0.19767 2.80691,-0.40324 4.2064,-0.593 7.43236,-1.03579 14.87262,-2.02414 22.31289,-2.95713 1.24136,-0.15814 2.49063,-0.30046 3.72408,-0.4586 7.70119,-0.94881 15.41029,-1.84227 23.12729,-2.68039 0.56138,-0.0632 1.12276,-0.1186 1.68414,-0.18186 7.63793,-0.81439 15.28377,-1.58135 22.92171,-2.28505 0.8223,-0.0791 1.6446,-0.16604 2.46691,-0.2293 7.63002,-0.69579 15.26796,-1.33624 22.90589,-1.92134 1.31252,-0.10279 2.62504,-0.19767 3.93757,-0.30046 7.47189,-0.56138 14.94378,-1.0595 22.40777,-1.51019 1.36787,-0.087 2.75155,-0.16604 4.11942,-0.2372 7.56677,-0.44278 15.12564,-0.83812 22.69241,-1.1702 0.3479,-0.0158 0.6958,-0.0395 1.04369,-0.0553 0.0474,0 0.10279,0 0.15023,0 0.86184,-0.0316 1.70786,-0.0553 2.56179,-0.087 5.98542,-0.25302 11.97084,-0.47441 17.95626,-0.64836 1.20183,-0.0395 2.40366,-0.087 3.59758,-0.1186 6.67331,-0.18976 13.34662,-0.33208 20.01992,-0.43487 0.60883,0 1.23346,-0.0316 1.85019,-0.0474 h 0.31627 c 0.86184,-0.0158 1.72367,0 2.5776,-0.0237 6.52308,-0.087 13.04616,-0.14232 19.56924,-0.15023 h 1.0437 c 6.76028,0 13.50475,0.0554 20.26503,0.13441 0.83812,0.0158 1.66833,0 2.50644,0.0237 h 0.23721 c 0.64835,0 1.29671,0.0316 1.94506,0.0474 7.47189,0.1107 14.94378,0.26883 22.41568,0.49022 1.30461,0.0395 2.60132,0.087 3.90594,0.12651 7.66956,0.23721 15.33121,0.52976 23.00868,0.87765 0.72742,0.0316 1.46275,0.0791 2.19808,0.1107 7.61421,0.3558 15.23633,0.77486 22.85054,1.24136 0.6958,0.0395 1.38369,0.0791 2.08739,0.1186 7.66956,0.48231 15.34703,1.02788 23.0245,1.62089 1.2888,0.10279 2.56969,0.19767 3.85059,0.29255 7.46398,0.593 14.92797,1.24136 22.37614,1.93715 1.37578,0.13442 2.75946,0.26093 4.13524,0.39534 7.51933,0.71952 15.02285,1.47857 22.53427,2.30878 1.09114,0.12651 2.18227,0.24511 3.28131,0.37162 7.87514,0.88555 15.74237,1.80274 23.6096,2.8069 0.1186,0.0158 0.22929,0.0316 0.3558,0.0474 7.81188,0.99625 15.62376,2.06366 23.41983,3.17061 0.6958,0.10279 1.39159,0.18185 2.08739,0.27674 0.13441,0.0237 0.26883,0.0395 0.40324,0.0632 0.3479,0.0474 0.68789,0.11069 1.03579,0.15814 6.57052,0.94881 13.14104,1.94506 19.71156,2.97294 1.51019,0.22929 3.02829,0.48231 4.54639,0.71951 6.35704,1.01207 12.69826,2.06367 19.04739,3.1548 0.33209,0.0553 0.67208,0.1107 1.00416,0.17395 0.18186,0.0316 0.3479,0.0553 0.52975,0.087 0.0158,0 0.0395,0 0.0633,0.0158 6.68121,1.15439 13.34662,2.37203 20.00411,3.61339 1.57345,0.28464 3.14689,0.5851 4.72034,0.87765 6.53889,1.24136 13.07778,2.51435 19.60086,3.82687 0.26093,0.0553 0.52185,0.10279 0.78277,0.15814 0.14233,0.0316 0.27674,0.0553 0.41906,0.087 0.75905,0.15814 1.52601,0.32418 2.29296,0.48232 5.85101,1.19392 11.69411,2.42737 17.53721,3.68455 1.43903,0.30836 2.87806,0.61673 4.31709,0.933 6.42029,1.39949 12.83268,2.85434 19.23715,4.3329 0.59301,0.14232 1.20183,0.26093 1.79484,0.40325 0,0 0,0 0,0 0,0 0,0 0,0.0158 31.90379,7.42445 63.63363,15.81353 95.1579,25.19886 8.26257,3.18642 14.69076,4.52267 17.47394,6.79981 0.67208,0.55348 1.14649,1.34415 1.20974,2.20599 z"
     id="path2"
     style="fill:url(#linearGradient38);stroke-width:0.790676" />
  <path
     class="cls-1"
     d="m 916.21993,301.29513 c -0.94881,6.44401 -2.19808,15.06238 -3.99291,25.52303 -0.71161,4.18268 -1.5181,8.66581 -2.41947,13.40987 -1.07532,5.67706 -2.30878,11.76527 -3.70037,18.19346 -0.41905,1.93716 -0.85393,3.90594 -1.30461,5.90636 -3.68455,16.33537 -8.4207,34.74231 -14.59589,54.69108 v 0 C 746.27987,383.25664 598.65269,367.59334 451.49201,371.99741 c -0.4586,0.0158 -0.9251,0.0237 -1.38369,0.0316 -7.78025,0.23721 -15.56051,0.55348 -23.33286,0.90137 -0.42696,0.0237 -0.84602,0.0316 -1.26508,0.0553 -7.08446,0.32418 -14.16101,0.71161 -21.23757,1.13858 -1.11485,0.0633 -2.2297,0.11069 -3.34456,0.18185 -7.06074,0.43487 -14.12148,0.94091 -21.17431,1.45485 -1.13067,0.087 -2.26133,0.15022 -3.392,0.2372 -6.51517,0.49812 -13.03035,1.06741 -19.55343,1.64461 -1.66832,0.15813 -3.32874,0.26883 -4.99707,0.42696 -6.48355,0.59301 -12.96709,1.26508 -19.44273,1.93716 -1.69205,0.17395 -3.3841,0.32418 -5.08405,0.50603 -5.96961,0.64045 -11.9234,1.35996 -17.8851,2.06367 -2.19808,0.25301 -4.41197,0.49022 -6.61005,0.75905 -5.88264,0.71951 -11.76527,1.51809 -17.6479,2.30086 -2.26924,0.30046 -4.53848,0.5772 -6.80772,0.89347 -5.4873,0.75905 -10.96668,1.58926 -16.44607,2.40365 -2.65667,0.39534 -5.32125,0.75115 -7.97002,1.1623 -6.23844,0.96462 -12.46896,1.9925 -18.69159,3.02038 -1.88971,0.31627 -3.78734,0.59301 -5.67705,0.92509 -6.04868,1.01998 -12.09735,2.12692 -18.13812,3.21806 -2.06366,0.37161 -4.12733,0.71951 -6.19099,1.09904 -5.91426,1.09113 -11.81271,2.25342 -17.71115,3.41572 -2.18227,0.43487 -4.38035,0.83021 -6.55471,1.27299 -5.57427,1.12276 -11.12482,2.30877 -16.68327,3.48688 -2.51435,0.53766 -5.0287,1.02788 -7.54305,1.58135 -6.09612,1.32043 -12.18433,2.71202 -18.27254,4.10361 -1.96087,0.45069 -3.92175,0.87765 -5.88263,1.32834 -5.99332,1.3995 -11.97084,2.87015 -17.95626,4.34081 -2.06366,0.50603 -4.12733,0.97253 -6.19099,1.48647 C 91.544507,364.9762 85.329791,321.97922 82.301501,301.30303 l 63.080159,-33.83304 v -46.93454 l 62.51087,-33.86467 V 139.77576 C 294.38462,98.534086 389.66112,71.413887 499.25676,56.857536 h 0.0395 c 0.21348,0.03163 0.42696,0.06325 0.64045,0.09488 6.63377,0.885558 13.2122,1.810649 19.73528,2.791088 0.64835,0.09488 1.2888,0.205575 1.93715,0.300457 6.0724,0.925091 12.12898,1.865996 18.1144,2.878061 0.19767,0.03163 0.38743,0.07116 0.5851,0.102788 32.93958,5.518921 64.57454,12.263391 95.0472,20.304569 1.77903,0.466499 3.53433,0.972532 5.30544,1.446938 4.33291,1.170201 8.67372,2.332495 12.95919,3.550136 0.4744,0.134415 0.933,0.276737 1.39949,0.419059 5.56637,1.589259 11.09319,3.218053 16.58049,4.894286 1.33624,0.411152 2.63295,0.846024 3.96919,1.257176 4.60174,1.431124 9.19557,2.878062 13.75777,4.37244 1.47066,0.490219 2.90969,0.996256 4.38035,1.486476 10.22344,3.42363 20.3441,6.98167 30.31453,10.72157 2.87015,1.07532 5.69287,2.20598 8.54721,3.31293 2.81481,1.09114 5.64543,2.15064 8.44442,3.28131 16.87304,6.74447 33.39027,13.97916 49.59913,21.71197 v 46.89501 l 62.51878,33.86467 v 46.93455 l 63.08016,33.83304 z"
     id="path3"
     style="fill:url(#linear-gradient-2);stroke-width:0.790676" />
  <path
     class="cls-3"
     d="m 1000,467.59808 c -0.0395,-14.64332 -14.47728,-22.02824 -55.20502,-33.95164 12.28711,-40.12682 21.42733,-81.70059 27.3574,-124.63431 l 5.36869,-38.82221 -67.927,-36.43437 v -46.7685 L 847.08319,153.12238 V 104.21114 L 815.02127,88.935275 C 723.89582,45.48761 623.13993,16.469788 506.92632,1.0199725 L 499.33583,0 491.74534,1.0199725 C 375.53173,16.461881 274.76003,45.479703 183.64249,88.927368 l -32.06193,15.275872 v 48.91123 l -62.51087,33.86467 v 46.76851 l -67.927005,36.43436 5.368693,38.82221 c 5.953793,43.06024 15.125638,84.76051 27.468096,124.99803 C 11.464807,446.47912 0.04744058,453.0101 0,467.59808 v 64.36896 c 0,0 0.03162705,0 0.04744058,-0.0158 C 0.04744058,532.14099 0,532.33076 0,532.52052 c 0,15.75818 42.396066,30.21965 113.01928,41.53423 16.16933,29.54757 34.34698,58.05145 54.58038,85.43258 76.41887,103.38883 179.57051,187.96748 306.58476,251.45089 l 25.14351,12.57966 25.1435,-12.57966 C 651.48568,847.45481 754.63732,762.87616 831.05619,659.48733 851.23425,632.18527 869.37236,603.76046 885.51797,574.29195 957.02674,562.94574 1000,548.3973 1000,532.52842 c 0,-0.18976 -0.0395,-0.37952 -0.0553,-0.56928 0.0158,0 0.0316,0 0.0553,0.0158 V 467.60599 Z M 145.37375,267.46209 v -46.93455 l 62.51087,-33.86467 V 139.76786 C 294.37671,98.526179 389.65321,71.405981 499.24886,56.849629 h 0.0395 c 0.21348,0.03163 0.42697,0.06325 0.64045,0.09488 6.63377,0.885558 13.2122,1.810649 19.73528,2.791088 0.64836,0.09488 1.2888,0.205576 1.93716,0.300457 6.07239,0.925091 12.12897,1.865996 18.11439,2.878062 0.19767,0.03163 0.38743,0.07116 0.5851,0.102788 32.93958,5.518921 64.57454,12.26339 95.04721,20.304568 1.77902,0.466499 3.53432,0.972532 5.30543,1.446938 4.33291,1.170201 8.67372,2.332495 12.95919,3.550137 0.47441,0.134415 0.933,0.276736 1.3995,0.419058 5.56636,1.58926 11.09319,3.218053 16.58048,4.894287 1.33624,0.411151 2.63295,0.846023 3.9692,1.257175 4.60173,1.431124 9.19556,2.878062 13.75776,4.37244 1.47066,0.49022 2.90969,0.996253 4.38035,1.486473 10.22345,3.42363 20.3441,6.98167 30.31453,10.72157 2.87016,1.07532 5.69287,2.20599 8.54721,3.31293 2.81481,1.09114 5.64543,2.15064 8.44443,3.28131 16.87303,6.74447 33.39026,13.97916 49.59912,21.71197 v 46.89502 l 62.51878,33.86467 v 46.93454 l 63.08016,33.83304 c -0.94881,6.44402 -2.19808,15.06239 -3.99291,25.52304 -0.71161,4.18267 -1.5181,8.66581 -2.41947,13.40987 -1.07532,5.67705 -2.30878,11.76526 -3.70037,18.19346 -0.41906,1.93716 -0.85393,3.90594 -1.30462,5.90635 -3.68455,16.33538 -8.4207,34.74232 -14.59588,54.69109 v 0 c -143.92682,-35.7623 -291.554,-51.42559 -438.71468,-47.02153 -0.45859,0.0158 -0.92509,0.0237 -1.38368,0.0316 -7.78026,0.2372 -15.56051,0.55347 -23.33286,0.90137 -0.42697,0.0237 -0.84602,0.0316 -1.26508,0.0553 -7.08446,0.32418 -14.16102,0.71161 -21.23757,1.13857 -1.11485,0.0633 -2.22971,0.1107 -3.34456,0.18186 -7.06074,0.43487 -14.12148,0.9409 -21.17431,1.45484 -1.13067,0.087 -2.26134,0.15023 -3.392,0.23721 -6.51518,0.49812 -13.03035,1.06741 -19.55343,1.6446 -1.66833,0.15814 -3.32875,0.26883 -4.99707,0.42697 -6.48355,0.593 -12.9671,1.26508 -19.44274,1.93715 -1.69204,0.17395 -3.38409,0.32418 -5.08404,0.50604 -5.96961,0.64045 -11.9234,1.35996 -17.8851,2.06366 -2.19808,0.25302 -4.41198,0.49022 -6.61006,0.75905 -5.88263,0.71952 -11.76526,1.5181 -17.64789,2.30087 -2.26924,0.30046 -4.53849,0.57719 -6.80773,0.89346 -5.48729,0.75905 -10.96668,1.58926 -16.44606,2.40366 -2.65668,0.39534 -5.32126,0.75114 -7.97002,1.16229 -6.23844,0.96463 -12.46897,1.99251 -18.69159,3.02039 -1.88972,0.31627 -3.78734,0.59301 -5.67706,0.92509 -6.04867,1.01997 -12.09735,2.12692 -18.13811,3.21805 -2.06367,0.37162 -4.12733,0.71952 -6.191,1.09904 -5.91426,1.09114 -11.8127,2.25343 -17.71115,3.41572 -2.18227,0.43488 -4.38035,0.83021 -6.55471,1.27299 -5.57426,1.12276 -11.12481,2.30878 -16.68327,3.48689 -2.51435,0.53766 -5.0287,1.02788 -7.54305,1.58135 -6.09611,1.32043 -12.18432,2.71202 -18.27253,4.10361 -1.96088,0.45068 -3.92175,0.87765 -5.88263,1.32834 -5.99333,1.39949 -11.97084,2.87015 -17.95626,4.34081 -2.06367,0.50603 -4.12733,0.97253 -6.191,1.48647 C 91.528694,364.98411 85.313978,321.98713 82.285687,301.31094 L 145.36585,267.4779 Z m 731.68399,198.67324 c -1.08323,-1.77111 -2.48273,-3.55013 -4.1985,-5.30544 -2.30877,-2.29296 -4.60964,-4.57801 -6.91841,-6.86307 -2.93341,-2.93341 -4.99708,-5.82728 -6.15937,-8.68162 -1.1702,-2.86225 -1.7474,-5.58218 -1.7474,-8.16769 0,-2.19017 0.38743,-4.12733 1.1623,-5.80356 0.78277,-1.68414 1.81855,-3.02829 3.13107,-4.05617 1.30462,-1.01207 2.84644,-1.69996 4.61755,-2.04786 1.77903,-0.33999 3.67665,-0.26883 5.66125,0.19767 3.50269,0.83021 6.52308,2.53017 9.07696,5.09987 2.54598,2.55388 4.51476,6.18309 5.90635,10.85598 -2.6883,0.97253 -5.3766,1.93716 -8.06489,2.90969 -0.66417,-2.5697 -1.57345,-4.73615 -2.70412,-6.46773 -1.13857,-1.73949 -2.68039,-2.84644 -4.61755,-3.29712 -1.50228,-0.35581 -2.68039,-0.1186 -3.54223,0.71951 -0.86183,0.83812 -1.29671,1.96879 -1.29671,3.36829 0,1.57344 0.4665,3.20223 1.36787,4.87847 0.92509,1.67623 2.32459,3.43944 4.2064,5.28962 2.08739,2.07948 4.15896,4.14315 6.24634,6.23053 2.98876,2.97295 5.21056,5.93798 6.64959,8.8793 1.43903,2.94131 2.15855,6.01704 2.15855,9.22719 0,2.30087 -0.41115,4.35663 -1.24927,6.14356 -0.83021,1.78692 -1.96088,3.22596 -3.40781,4.30918 -1.43904,1.07532 -3.11527,1.80274 -5.02871,2.19018 -1.91343,0.37952 -3.92175,0.31627 -6.03286,-0.18977 -3.93756,-0.9409 -7.33747,-2.86225 -10.20763,-5.76403 -2.86225,-2.90969 -5.01289,-6.88679 -6.45982,-11.93921 2.61713,-1.01207 5.23427,-2.01622 7.84351,-3.01248 0.83021,3.12317 1.96087,5.68497 3.36828,7.70119 1.41531,2.02413 3.31293,3.31293 5.70868,3.88222 1.82646,0.43487 3.31293,0.15814 4.45151,-0.83812 1.13857,-0.98834 1.70786,-2.32458 1.70786,-4.01663 0,-1.85809 -0.54557,-3.67665 -1.62089,-5.45567 z m -32.7261,-22.72404 v 9.36952 c -4.58592,-1.00416 -9.18766,-2.00041 -13.78149,-2.95713 v 16.70699 c 6.12774,1.2888 12.25549,2.60923 18.38323,3.9771 v 9.1165 c -9.26673,-2.06366 -18.54136,-4.04036 -27.83181,-5.93798 v -59.06352 c 9.29045,1.89762 18.56508,3.87431 27.83181,5.93798 -0.60882,2.90178 -1.22555,5.80356 -1.83437,8.70534 -5.51102,-1.21764 -11.02994,-2.40365 -16.54095,-3.56595 v 14.76193 c 4.59383,0.97253 9.19557,1.95297 13.78149,2.95713 z m -31.95123,28.5197 c -3.49479,-0.68789 -6.98167,-1.36787 -10.47646,-2.03995 -2.71202,-7.41654 -5.42404,-14.81727 -8.13606,-22.218 -0.56138,0.12651 -1.12276,0.2293 -1.68414,0.32418 -0.56138,0.0949 -1.12276,0.17395 -1.68414,0.2372 -0.36371,0.0474 -0.72742,0.0949 -1.08323,0.14232 v 19.15018 c -3.17061,-0.57719 -6.33332,-1.14648 -9.49602,-1.70786 v -59.06352 c 2.96503,0.52185 5.93798,1.0595 8.90301,1.60507 3.13108,0.5772 6.01705,1.51019 8.6421,2.83062 2.63295,1.31253 4.89428,2.93341 6.79191,4.87057 1.89762,1.94506 3.37618,4.14314 4.4436,6.60215 1.0595,2.459 1.59716,5.12358 1.59716,7.98583 0,3.55013 -0.72742,6.46773 -2.17436,8.7686 -1.45484,2.30877 -3.43944,4.11152 -5.9617,5.43194 3.43945,9.01372 6.87889,18.03533 10.31042,27.06486 z m -66.24286,-22.72404 c 1.26508,1.90553 2.94922,3.02829 5.09195,3.36828 2.24552,0.35581 4.00082,-0.21348 5.258,-1.73158 1.26508,-1.51019 1.89762,-3.77943 1.89762,-6.82354 v -40.9254 c 3.17061,0.52184 6.34123,1.0516 9.50393,1.58926 v 40.9175 c 0,6.0803 -1.526,10.49227 -4.57801,13.24383 -3.05992,2.75155 -7.08446,3.71618 -12.08154,2.9255 -4.87847,-0.77486 -8.85557,-3.02038 -11.91549,-6.74447 -3.06783,-3.72409 -4.59383,-8.61837 -4.59383,-14.69077 v -40.9254 c 3.17852,0.46649 6.34913,0.94881 9.51974,1.43112 v 40.92541 c 0,3.0441 0.62464,5.51892 1.89763,7.43235 z m -51.26746,-46.08062 v -9.11649 c 10.72948,1.32833 21.45896,2.75155 32.16472,4.28546 v 9.1165 c -3.76362,-0.53766 -7.53515,-1.05951 -11.30668,-1.58135 v 49.94702 c -3.17852,-0.43487 -6.36494,-0.85393 -9.53555,-1.27299 v -49.94702 c -3.77153,-0.49022 -7.55096,-0.97253 -11.32249,-1.43113 z m -27.8239,32.89214 c 1.57345,3.6292 3.71618,5.58218 6.42029,5.88263 1.80275,0.19767 3.36038,-0.4665 4.65709,-1.97669 1.29671,-1.51019 2.30877,-3.82687 3.0441,-6.95004 2.73574,2.13482 5.47148,4.28546 8.20722,6.4361 -1.4074,4.39616 -3.48688,7.57468 -6.21471,9.56719 -2.73574,1.98459 -5.96961,2.77527 -9.6937,2.36412 -5.69287,-0.61673 -10.19972,-3.60549 -13.49684,-8.97418 -3.29712,-5.36869 -4.94964,-13.10151 -4.94964,-23.23007 0,-10.12856 1.65252,-17.56092 4.94964,-22.28917 3.29712,-4.72824 7.80397,-6.79191 13.49684,-6.17518 3.72409,0.41115 6.96586,1.90553 9.73323,4.46732 2.76737,2.5697 4.82312,6.27797 6.17518,11.10901 -2.73574,1.49437 -5.47148,3.00457 -8.20722,4.51476 -0.73533,-3.29712 -1.74739,-5.83519 -3.0441,-7.63794 -1.29671,-1.80274 -2.85434,-2.8148 -4.65709,-3.00457 -2.70411,-0.30045 -4.84684,1.21765 -6.42029,4.53849 -1.58135,3.31293 -2.37993,8.46814 -2.37993,15.44191 0,6.97376 0.79067,12.27129 2.37993,15.9005 z m -23.29332,-47.4643 v 59.06352 c -3.19434,-0.29255 -6.38867,-0.57719 -9.57509,-0.84602 v -59.06352 c 3.19433,0.26883 6.38866,0.55347 9.57509,0.84602 z m -19.7511,16.96791 c 0,2.98085 -0.51394,5.57427 -1.526,7.77235 -1.01998,2.19018 -2.43529,4.09571 -4.24594,5.70078 -1.80274,1.61298 -3.96919,2.96503 -6.48354,4.07989 -2.51435,1.11485 -5.24219,2.02413 -8.1835,2.72783 -0.51394,0.14232 -1.01997,0.26883 -1.53391,0.40325 v 18.14602 c -3.19434,-0.20558 -6.39658,-0.41115 -9.59091,-0.59301 v -59.06352 c 3.00457,0.18185 6.00914,0.36371 9.00581,0.56138 3.2813,0.20557 6.30169,0.83812 9.07696,1.8739 2.77527,1.03579 5.16312,2.44319 7.17143,4.19059 2.00832,1.74739 3.56595,3.82687 4.66499,6.22262 1.10695,2.38784 1.66042,5.04451 1.66042,7.97002 z m -53.47344,32.55215 c 0,1.38368 -0.49813,2.53807 -1.49438,3.47107 -0.99625,0.92509 -2.17436,1.35996 -3.52641,1.29671 -1.3916,-0.0633 -2.57761,-0.5851 -3.55805,-1.59717 -0.98044,-1.01206 -1.46275,-2.20599 -1.46275,-3.59758 0,-1.39159 0.49022,-2.49063 1.46275,-3.43944 0.97253,-0.95672 2.15855,-1.3995 3.55805,-1.34415 1.35205,0.0553 2.52225,0.60092 3.52641,1.64461 1.00416,1.04369 1.49438,2.2218 1.49438,3.56595 z m -26.07651,-16.43816 c -1.10694,-1.54973 -2.53807,-3.02039 -4.29337,-4.42779 -2.35621,-1.80274 -4.70452,-3.60548 -7.05283,-5.40032 -3.00457,-2.31668 -5.10777,-4.77568 -6.29379,-7.38492 -1.19392,-2.60923 -1.77902,-5.21055 -1.77902,-7.79607 0,-2.19017 0.39534,-4.2143 1.18602,-6.04867 0.79858,-1.84228 1.85018,-3.40781 3.19433,-4.70452 1.32834,-1.30462 2.90178,-2.30878 4.71243,-3.02039 1.81065,-0.71951 3.7399,-1.0516 5.77985,-0.99625 3.57385,0.10279 6.65749,1.16229 9.25882,3.18643 2.60132,2.03203 4.61754,5.23427 6.03286,9.61462 -2.75156,1.52601 -5.4952,3.06782 -8.24676,4.61755 -0.67207,-2.44319 -1.59716,-4.41197 -2.75946,-5.90635 -1.16229,-1.49438 -2.73574,-2.27715 -4.72034,-2.32459 -1.526,-0.0474 -2.73574,0.45069 -3.61339,1.46275 -0.87765,1.01997 -1.32043,2.23762 -1.32043,3.64502 0,1.57344 0.47441,3.10736 1.3995,4.58592 0.9409,1.48647 2.36412,2.95713 4.29337,4.41988 2.12692,1.6288 4.24593,3.2655 6.37285,4.9022 3.05992,2.3483 5.32126,4.84684 6.79191,7.47979 1.47857,2.64086 2.2139,5.56637 2.2139,8.7686 0,2.30878 -0.42697,4.44361 -1.2809,6.40448 -0.85393,1.96879 -2.00832,3.64502 -3.48688,5.0287 -1.47066,1.37578 -3.17852,2.46691 -5.1394,3.25759 -1.95297,0.78277 -4.00873,1.14648 -6.15937,1.09113 -4.02454,-0.11069 -7.49561,-1.31252 -10.4053,-3.62129 -2.91759,-2.30878 -5.12358,-5.83519 -6.58633,-10.58716 2.65667,-1.55763 5.32125,-3.11526 7.98583,-4.66499 0.84602,2.94922 1.9925,5.27381 3.43944,6.99749 1.43903,1.73158 3.37619,2.60923 5.81938,2.67248 1.866,0.0554 3.3841,-0.53766 4.54639,-1.76321 1.16229,-1.23345 1.73949,-2.6883 1.73949,-4.38034 0,-1.85809 -0.55348,-3.56595 -1.65252,-5.11568 z M 515.59214,411.5075 c 0,10.12857 -1.67624,17.67953 -5.01289,22.69241 -3.34456,5.00499 -7.91467,7.49562 -13.69451,7.49562 -5.77985,0 -10.33414,-2.49063 -13.67871,-7.49562 -3.34456,-5.00498 -5.02079,-12.56384 -5.02079,-22.69241 0,-10.12856 1.69205,-17.73487 5.06033,-22.83473 3.36828,-5.08405 7.92258,-7.64584 13.63917,-7.64584 5.72449,0 10.27879,2.56179 13.64707,7.65375 3.36828,5.09195 5.06033,12.70617 5.06033,22.82682 z m -43.43976,29.61083 c -3.54223,0.0553 -7.07655,0.1186 -10.61878,0.19767 -2.75156,-6.82354 -5.50311,-13.65498 -8.24676,-20.47061 -0.57719,0.2372 -1.13857,0.47441 -1.70786,0.67998 -0.56929,0.21349 -1.13067,0.41115 -1.69995,0.59301 -0.37162,0.12651 -0.73533,0.24511 -1.10695,0.37162 v 19.15809 c -3.20224,0.0949 -6.39657,0.19766 -9.59881,0.30836 v -59.06352 c 3.00457,-0.1107 6.00914,-0.19767 9.01371,-0.29255 3.17061,-0.0949 6.0803,0.22929 8.74488,0.98044 2.66458,0.75114 4.95754,1.89762 6.88679,3.43153 1.92134,1.53391 3.42363,3.42363 4.49895,5.64543 1.07532,2.22971 1.61298,4.7915 1.61298,7.65375 0,3.54223 -0.73533,6.61796 -2.20599,9.22719 -1.47066,2.61714 -3.48688,4.84685 -6.03286,6.70493 3.48688,8.27839 6.97377,16.56467 10.45274,24.86678 z m -44.38857,-26.44021 c 1.66833,2.26133 2.50644,4.99707 2.50644,8.20722 0,2.8148 -0.593,5.43194 -1.77902,7.84351 -1.19392,2.41156 -2.86225,4.52266 -5.01289,6.33331 -2.14273,1.81065 -4.75987,3.28922 -7.81188,4.42779 -3.05992,1.13857 -6.45192,1.80274 -10.19182,2.01623 -2.77527,0.16604 -5.55054,0.32417 -8.32582,0.49812 v -59.06352 c 2.71993,-0.17395 5.43195,-0.32418 8.15187,-0.48231 6.39658,-0.36372 11.50435,0.80649 15.33122,3.47106 3.81897,2.65668 5.7324,6.36495 5.7324,11.07738 0,1.91344 -0.48231,3.83478 -1.44694,5.76403 -0.96462,1.92134 -2.31668,3.66083 -4.07198,5.20265 2.94132,0.87765 5.25009,2.4511 6.92633,4.71243 z m -60.22582,31.39775 c -3.53432,0.28465 -7.06864,0.5851 -10.59506,0.88556 -2.74365,-6.65749 -5.48729,-13.29918 -8.22304,-19.94086 -0.56928,0.26883 -1.13066,0.54557 -1.69995,0.79068 -0.56929,0.24511 -1.13067,0.48231 -1.69995,0.7037 -0.36371,0.15023 -0.72743,0.29255 -1.09904,0.44278 v 19.15018 c -3.19434,0.30046 -6.38076,0.60882 -9.56719,0.94091 v -59.06353 c 2.98876,-0.30045 5.98542,-0.593 8.98209,-0.87765 3.1627,-0.30045 6.06448,-0.16604 8.72906,0.41906 2.66458,0.5851 4.94173,1.57345 6.86307,2.98876 1.92135,1.4074 3.41573,3.20224 4.49105,5.35288 1.06741,2.16645 1.61297,4.6808 1.61297,7.55096 0,3.55013 -0.73532,6.6733 -2.20598,9.38532 -1.47066,2.70412 -3.47898,5.06824 -6.01705,7.08446 3.47898,8.057 6.95005,16.11399 10.42902,24.1947 z m -47.78057,-30.65452 v 9.36952 c -4.64918,0.50603 -9.30626,1.03578 -13.95544,1.58926 v 16.70699 c 6.19891,-0.73533 12.40571,-1.43113 18.61252,-2.0953 v 9.1086 c -9.39323,1.00415 -18.78647,2.09529 -28.16389,3.26549 v -59.06352 c 9.38533,-1.1702 18.77857,-2.25343 28.16389,-3.25759 -0.61672,3.09945 -1.24136,6.20681 -1.85809,9.30626 -5.59008,0.60091 -11.17225,1.24136 -16.75443,1.89762 v 14.76193 c 4.64918,-0.55347 9.30626,-1.07532 13.95544,-1.58926 z m -35.84136,-19.53761 v 59.06352 c -3.13108,0.41115 -6.25425,0.83812 -9.37742,1.26508 -5.12358,-11.52015 -10.23926,-23.02449 -15.34703,-34.50511 v 36.70319 c -3.09154,0.4586 -6.18309,0.9251 -9.26672,1.39159 V 400.7464 c 3.11526,-0.48231 6.23053,-0.95672 9.3537,-1.41531 5.11567,11.47271 10.23135,22.98496 15.34702,34.50511 v -36.69529 c 3.09155,-0.42696 6.191,-0.84602 9.29045,-1.25717 z m -42.75977,65.28614 c -3.51061,0.56929 -7.0133,1.13067 -10.52391,1.71577 -2.71992,-6.4361 -5.43985,-12.8643 -8.15978,-19.2925 -0.56138,0.32418 -1.11485,0.62463 -1.67623,0.933 -0.56929,0.28464 -1.12276,0.57719 -1.69205,0.83811 -0.36371,0.18186 -0.71951,0.3479 -1.08322,0.52976 v 19.15809 c -3.17062,0.55347 -6.33332,1.10694 -9.50393,1.68414 v -59.06353 c 2.96503,-0.53766 5.93797,-1.0595 8.90301,-1.58135 3.14689,-0.55347 6.02495,-0.63254 8.66581,-0.26092 2.63296,0.36371 4.9022,1.18601 6.80773,2.45109 1.91343,1.25718 3.392,2.92551 4.45941,5.00499 1.06741,2.07947 1.60507,4.55429 1.60507,7.42445 0,3.54223 -0.73532,6.72865 -2.19017,9.54346 -1.45484,2.83062 -3.44735,5.34497 -5.97751,7.56677 3.44735,7.78026 6.8947,15.56842 10.34995,23.3724 z m -40.76728,7.03702 c -3.24177,0.60092 -6.48354,1.21765 -9.72532,1.83437 -0.69579,-3.55013 -1.39949,-7.10027 -2.1032,-10.65041 -4.35662,0.84603 -8.72116,1.70786 -13.06988,2.57761 -0.69579,3.82687 -1.39159,7.65374 -2.09529,11.48062 -3.12317,0.63254 -6.24634,1.28089 -9.36951,1.92925 3.92966,-20.51015 7.86723,-41.00448 11.8048,-61.4909 4.23802,-0.85393 8.48395,-1.69995 12.72988,-2.51435 3.94548,18.92088 7.88305,37.85758 11.82852,56.818 z m -37.87339,-51.56 c -4.01664,20.53386 -8.01746,41.07564 -12.0341,61.64113 -3.17061,0.68789 -6.34913,1.39159 -9.51183,2.1111 -2.36413,-11.98665 -4.72825,-23.9654 -7.09237,-35.93624 -2.36412,13.05407 -4.72034,26.12395 -7.08446,39.18592 -3.17061,0.74324 -6.33332,1.49438 -9.49602,2.25343 -3.9692,-18.73903 -7.93839,-37.44643 -11.89178,-56.15383 3.24178,-0.80649 6.48355,-1.59717 9.73323,-2.38785 2.43528,12.21595 4.87847,24.41609 7.32166,36.63995 2.38784,-13.36243 4.77569,-26.71696 7.16353,-40.07148 2.94132,-0.67998 5.89845,-1.35996 8.83976,-2.02413 2.39575,12.24757 4.78359,24.51887 7.17934,36.77435 2.48273,-13.34661 4.95754,-26.67742 7.44027,-40.01613 3.13898,-0.67998 6.29378,-1.35205 9.44067,-2.01622 z m 816.54727,115.33596 c -5.7245,3.57386 -16.17724,7.70909 -36.90086,13.06197 -13.2043,3.40782 -28.71737,6.6575 -46.34945,9.7016 5.15521,-10.10484 10.12066,-20.31248 14.80937,-30.64662 -18.54927,-4.87056 -37.17761,-9.40114 -55.85338,-13.59963 -17.52139,37.22504 -40.07148,76.47422 -69.16046,115.502 -3.29712,4.48314 -6.63378,8.89511 -9.98624,13.23592 -0.36371,0.4665 -0.71952,0.91719 -1.07532,1.37578 -1.32834,1.69996 -2.64877,3.39991 -3.99292,5.08405 -0.42696,0.54557 -0.86184,1.06741 -1.29671,1.61298 -1.26508,1.58135 -2.53016,3.17061 -3.80315,4.73615 -2.54598,3.13899 -5.12358,6.22262 -7.70119,9.28254 -2.59342,3.07573 -5.19474,6.12774 -7.81188,9.12441 -0.56929,0.65626 -1.13857,1.29671 -1.71577,1.94506 -1.1702,1.33624 -2.34831,2.67249 -3.51851,3.99292 -0.36371,0.40324 -0.71951,0.79858 -1.08322,1.20182 -1.38369,1.54973 -2.78319,3.09155 -4.17478,4.62546 -0.37161,0.41115 -0.75114,0.8144 -1.12276,1.22555 -1.38368,1.50228 -2.76736,3.01248 -4.15105,4.49895 -0.21348,0.22929 -0.44278,0.45859 -0.65626,0.68789 -1.54182,1.65251 -3.08364,3.29712 -4.63336,4.918 -0.91719,0.96463 -1.83437,1.90553 -2.75156,2.86225 -0.85393,0.88556 -1.70786,1.77902 -2.55388,2.65667 -0.9409,0.97254 -1.88181,1.91344 -2.82271,2.87807 -0.83812,0.84602 -1.67624,1.70786 -2.51436,2.53807 -0.89346,0.90137 -1.77902,1.77902 -2.67248,2.67248 -0.89347,0.88556 -1.77112,1.77112 -2.65667,2.64086 -0.62464,0.61673 -1.24927,1.21764 -1.866,1.82646 -1.16229,1.13858 -2.32459,2.27715 -3.48688,3.39991 -0.1186,0.1186 -0.23721,0.2293 -0.36371,0.3479 -1.66042,1.60507 -3.31294,3.19433 -4.97336,4.76778 -0.41115,0.38743 -0.8223,0.76695 -1.23345,1.15439 -1.36787,1.2967 -2.75156,2.59341 -4.11943,3.87431 -0.0949,0.0791 -0.18185,0.16604 -0.26883,0.2372 -1.69204,1.57345 -3.37618,3.13108 -5.07614,4.6729 -0.31627,0.29255 -0.64045,0.5851 -0.95672,0.87765 -1.45484,1.32834 -2.91759,2.64086 -4.37244,3.94548 -0.71161,0.63254 -1.41531,1.25717 -2.13482,1.88971 -1.05951,0.94881 -2.13483,1.89762 -3.20224,2.83062 -0.76696,0.67998 -1.54182,1.34415 -2.30878,2.01623 -1.00416,0.87765 -2.01622,1.7553 -3.01247,2.62504 -0.55348,0.47441 -1.09904,0.94091 -1.65252,1.3995 -1.22555,1.04369 -2.44319,2.1032 -3.66083,3.13108 -0.54557,0.45859 -1.07532,0.90137 -1.61298,1.35206 -1.23345,1.03578 -2.459,2.07947 -3.68455,3.09154 -0.45069,0.37952 -0.90137,0.74324 -1.35996,1.11485 -1.30462,1.08323 -2.60133,2.15855 -3.90595,3.22596 -0.593,0.49022 -1.18601,0.96463 -1.77902,1.43903 -1.15438,0.94882 -2.31668,1.88972 -3.47107,2.81481 -0.61672,0.49813 -1.23345,0.98044 -1.85018,1.47066 -1.12276,0.90137 -2.24552,1.79483 -3.36037,2.68039 -1.01207,0.79859 -2.03204,1.58926 -3.0362,2.37994 -0.71952,0.56138 -1.43113,1.12276 -2.14273,1.68414 -0.95672,0.72742 -1.88972,1.44694 -2.83853,2.17436 -0.78277,0.59301 -1.55763,1.20183 -2.3404,1.79483 -0.72743,0.56138 -1.44694,1.09904 -2.17436,1.65252 -0.98044,0.74323 -1.96879,1.49438 -2.94923,2.2297 -0.53766,0.40325 -1.06741,0.79859 -1.61298,1.20183 -1.16229,0.86975 -2.32458,1.73949 -3.48688,2.59342 -0.48231,0.35581 -0.95672,0.6958 -1.43112,1.0516 -1.20183,0.87765 -2.40366,1.7553 -3.59758,2.62505 -0.79858,0.5851 -1.59717,1.15438 -2.39575,1.73158 -0.87765,0.62463 -1.74739,1.26508 -2.61714,1.88971 -0.71161,0.50604 -1.4074,0.99626 -2.11901,1.49438 -0.94881,0.67208 -1.89762,1.35206 -2.83853,2.01623 -0.68789,0.49022 -1.35996,0.95672 -2.05576,1.43112 -0.95672,0.67208 -1.92134,1.35206 -2.87806,2.00832 -0.3479,0.24511 -0.69579,0.49022 -1.0516,0.72742 -1.27299,0.87765 -2.53807,1.7474 -3.79525,2.60923 -0.3558,0.24511 -0.7116,0.48232 -1.06741,0.71952 -1.24136,0.85393 -2.49063,1.70786 -3.72408,2.53016 -0.5851,0.39534 -1.1623,0.77487 -1.7474,1.1623 -0.99625,0.67207 -2.00832,1.34415 -2.99666,2.00041 -0.68789,0.45859 -1.35997,0.90928 -2.05576,1.35996 -0.87765,0.5772 -1.7474,1.15439 -2.61714,1.73158 -0.60091,0.38743 -1.20183,0.77487 -1.79483,1.1623 -0.94882,0.60882 -1.89763,1.23345 -2.83853,1.83437 -0.35581,0.22929 -0.7037,0.45068 -1.05951,0.67998 -1.16229,0.74323 -2.33249,1.49438 -3.48688,2.22971 -0.51394,0.32417 -1.01997,0.64044 -1.53391,0.97253 -0.97254,0.60882 -1.95297,1.23345 -2.9176,1.84227 -0.79068,0.49813 -1.57345,0.97253 -2.35622,1.45485 -0.67998,0.43487 -1.37577,0.86974 -2.06366,1.2888 -0.62463,0.38743 -1.24927,0.76696 -1.8739,1.15439 -0.8144,0.50603 -1.64461,1.00416 -2.45901,1.50228 -0.48231,0.29255 -0.95672,0.5851 -1.43112,0.86975 -0.94881,0.5851 -1.88972,1.15438 -2.82272,1.71576 -0.37161,0.22139 -0.71951,0.43488 -1.08322,0.64836 -1.02788,0.60882 -2.05576,1.23345 -3.06783,1.83437 -0.56928,0.33208 -1.12276,0.65626 -1.68414,0.98834 -0.80649,0.47441 -1.62088,0.95672 -2.41156,1.42322 -0.41115,0.2372 -0.80649,0.4665 -1.21764,0.7037 -0.92509,0.54557 -1.85809,1.08323 -2.77528,1.62089 -0.45859,0.26092 -0.90927,0.52185 -1.35996,0.78277 -0.85393,0.49812 -1.71577,0.98044 -2.54598,1.47066 -0.30836,0.18185 -0.60882,0.34789 -0.92509,0.52975 -0.97253,0.55347 -1.94506,1.09904 -2.89387,1.64461 -0.2293,0.13441 -0.4586,0.25301 -0.67998,0.37952 -1.01207,0.5851 -2.03204,1.14648 -3.01248,1.70786 -0.45859,0.24511 -0.90137,0.49813 -1.35206,0.74324 -0.75905,0.42696 -1.5181,0.85393 -2.26133,1.26508 -0.55348,0.30046 -1.07532,0.59301 -1.61298,0.89346 -0.63254,0.34 -1.27299,0.6958 -1.88972,1.03579 -0.59301,0.32418 -1.17811,0.64045 -1.76321,0.96463 -0.54556,0.30045 -1.09904,0.60091 -1.6367,0.90137 -0.43487,0.22929 -0.84602,0.45859 -1.27299,0.67998 -0.67998,0.37162 -1.35996,0.73533 -2.03203,1.09904 -1.79484,0.96462 -3.51851,1.88181 -5.21056,2.77527 -0.33999,0.18186 -0.68789,0.37162 -1.02788,0.54557 -0.75905,0.40324 -1.49438,0.79068 -2.22971,1.17811 -0.22929,0.1265 -0.4665,0.24511 -0.68789,0.36371 -0.86183,0.45068 -1.69995,0.89346 -2.52225,1.32043 -0.0949,0.0553 -0.19767,0.11069 -0.30046,0.15813 -2.41156,1.26508 -4.66499,2.42738 -6.784,3.51061 -2.65668,1.35996 -5.08405,2.60132 -7.25051,3.70827 -0.0791,0.0395 -0.16604,0.0791 -0.2372,0.1186 C 457.37464,839.06574 318.51606,769.4704 212.91333,625.99428 191.97622,597.90154 174.45483,569.71393 159.73244,542.23793 v 0 c -1.40741,-2.63295 -2.799,-5.25009 -4.15106,-7.87514 -0.0237,-0.0395 -0.0395,-0.0791 -0.0632,-0.1186 -1.2809,-2.48272 -2.53807,-4.94172 -3.77943,-7.40863 -0.1107,-0.20558 -0.21349,-0.41906 -0.32418,-0.63255 -1.12276,-2.2297 -2.2218,-4.46732 -3.31293,-6.69702 -0.19767,-0.39534 -0.39534,-0.79859 -0.5851,-1.19393 -1.22555,-2.52225 -2.44319,-5.05242 -3.6213,-7.56677 -18.62834,4.2064 -37.20923,8.72907 -55.711057,13.60754 4.609643,10.16019 9.496023,20.18597 14.548447,30.12477 -17.213027,-3.00457 -32.370292,-6.20681 -45.289944,-9.55928 -20.296661,-5.2659 -30.954978,-9.89926 -36.347391,-12.88802 -0.679982,-0.37162 -1.439031,-1.2888 -1.605073,-2.05576 -0.229296,-1.09113 0.118601,-2.16645 0.940905,-2.90178 2.798994,-2.49854 8.871388,-3.42363 17.473947,-6.91051 31.176368,-9.29045 62.574126,-17.60837 94.122116,-24.97747 0,0 0,-0.0158 0,-0.0158 0.64044,-0.15814 1.29671,-0.28465 1.93715,-0.44278 6.53099,-1.51019 13.06988,-2.99666 19.61668,-4.4357 1.17811,-0.25301 2.35622,-0.50603 3.53433,-0.75904 5.94588,-1.28881 11.88386,-2.53808 17.83765,-3.76362 0.8144,-0.16605 1.6288,-0.3479 2.44319,-0.51394 0.0316,0 0.0712,-0.0158 0.1107,-0.0237 0.37162,-0.0791 0.74324,-0.15023 1.11485,-0.21349 6.57843,-1.33624 13.16476,-2.62504 19.759,-3.87431 1.49438,-0.28464 2.98876,-0.56929 4.48314,-0.83812 6.35704,-1.19392 12.71408,-2.34831 19.08693,-3.46316 0.37161,-0.0632 0.73533,-0.13442 1.10694,-0.19767 h 0.0237 c 0.087,-0.0158 0.18186,-0.0316 0.26093,-0.0474 7.7249,-1.34415 15.46563,-2.60923 23.20635,-3.83478 1.18601,-0.18976 2.37203,-0.37952 3.55804,-0.57719 7.44027,-1.1623 14.88053,-2.26134 22.32079,-3.31294 1.3995,-0.19767 2.80691,-0.40324 4.2064,-0.593 7.43236,-1.03579 14.87262,-2.02414 22.31289,-2.95713 1.24136,-0.15814 2.49063,-0.30046 3.72408,-0.4586 7.70119,-0.94881 15.41029,-1.84227 23.12729,-2.68039 0.56138,-0.0632 1.12276,-0.1186 1.68414,-0.18186 7.63793,-0.81439 15.28377,-1.58135 22.92171,-2.28505 0.8223,-0.0791 1.6446,-0.16604 2.46691,-0.2293 7.63002,-0.69579 15.26796,-1.33624 22.90589,-1.92134 1.31252,-0.10279 2.62504,-0.19767 3.93757,-0.30046 7.47189,-0.56138 14.94378,-1.0595 22.40777,-1.51019 1.36787,-0.087 2.75155,-0.16604 4.11942,-0.2372 7.56677,-0.44278 15.12564,-0.83812 22.69241,-1.1702 0.3479,-0.0158 0.6958,-0.0395 1.04369,-0.0553 0.0474,0 0.10279,0 0.15023,0 0.86184,-0.0316 1.70786,-0.0553 2.56179,-0.087 5.98542,-0.25302 11.97084,-0.47441 17.95626,-0.64836 1.20183,-0.0395 2.40366,-0.087 3.59758,-0.1186 6.67331,-0.18976 13.34662,-0.33208 20.01992,-0.43487 0.60883,0 1.23346,-0.0316 1.85019,-0.0474 h 0.31627 c 0.86184,-0.0158 1.72367,0 2.5776,-0.0237 6.52308,-0.087 13.04616,-0.14232 19.56924,-0.15023 h 1.0437 c 6.76028,0 13.50475,0.0554 20.26503,0.13441 0.83812,0.0158 1.66833,0 2.50644,0.0237 h 0.23721 c 0.64835,0 1.29671,0.0316 1.94506,0.0474 7.47189,0.1107 14.94378,0.26883 22.41568,0.49022 1.30461,0.0395 2.60132,0.087 3.90594,0.12651 7.66956,0.23721 15.33121,0.52976 23.00868,0.87765 0.72742,0.0316 1.46275,0.0791 2.19808,0.1107 7.61421,0.3558 15.23633,0.77486 22.85054,1.24136 0.6958,0.0395 1.38369,0.0791 2.08739,0.1186 7.66956,0.48231 15.34703,1.02788 23.0245,1.62089 1.2888,0.10279 2.56969,0.19767 3.85059,0.29255 7.46398,0.593 14.92797,1.24136 22.37614,1.93715 1.37578,0.13442 2.75946,0.26093 4.13524,0.39534 7.51933,0.71952 15.02285,1.47857 22.53427,2.30878 1.09114,0.12651 2.18227,0.24511 3.28131,0.37162 7.87514,0.88555 15.74237,1.80274 23.6096,2.8069 0.1186,0.0158 0.22929,0.0316 0.3558,0.0474 7.81188,0.99625 15.62376,2.06366 23.41983,3.17061 0.6958,0.10279 1.39159,0.18185 2.08739,0.27674 0.13441,0.0237 0.26883,0.0395 0.40324,0.0632 0.3479,0.0474 0.68789,0.11069 1.03579,0.15814 6.57052,0.94881 13.14104,1.94506 19.71156,2.97294 1.51019,0.22929 3.02829,0.48231 4.54639,0.71951 6.35704,1.01207 12.69826,2.06367 19.04739,3.1548 0.33209,0.0553 0.67208,0.1107 1.00416,0.17395 0.18186,0.0316 0.3479,0.0553 0.52975,0.087 0.0158,0 0.0395,0 0.0633,0.0158 6.68121,1.15439 13.34662,2.37203 20.00411,3.61339 1.57345,0.28464 3.14689,0.5851 4.72034,0.87765 6.53889,1.24136 13.07778,2.51435 19.60086,3.82687 0.26093,0.0553 0.52185,0.10279 0.78277,0.15814 0.14233,0.0316 0.27674,0.0553 0.41906,0.087 0.75905,0.15814 1.52601,0.32418 2.29296,0.48232 5.85101,1.19392 11.69411,2.42737 17.53721,3.68455 1.43903,0.30836 2.87806,0.61673 4.31709,0.933 6.42029,1.39949 12.83268,2.85434 19.23715,4.3329 0.59301,0.14232 1.20183,0.26093 1.79484,0.40325 0,0 0,0 0,0 0,0 0,0 0,0.0158 31.90379,7.42445 63.63363,15.81353 95.1579,25.19886 8.26257,3.18642 14.69076,4.52267 17.47394,6.79981 0.67208,0.55348 1.14649,1.34415 1.20974,2.20599 0.0791,1.23346 -0.55347,2.2218 -1.53391,2.84643 z"
     id="path4"
     style="stroke-width:0.790676" />
  <path
     class="cls-2"
     d="m 887.99279,473.117 c 0,2.30087 -0.41115,4.35663 -1.24927,6.14356 -0.83021,1.78693 -1.96088,3.22596 -3.40781,4.30919 -1.43904,1.07532 -3.11527,1.80274 -5.02871,2.19017 -1.91343,0.37952 -3.92175,0.31627 -6.03286,-0.18976 -3.93756,-0.94091 -7.33747,-2.86225 -10.20763,-5.76403 -2.86225,-2.90969 -5.01289,-6.88679 -6.45982,-11.93922 2.61713,-1.01206 5.23427,-2.01622 7.84351,-3.01247 0.83021,3.12317 1.96087,5.68496 3.36828,7.70118 1.41531,2.02414 3.31293,3.31294 5.70868,3.88222 1.82646,0.43488 3.31293,0.15814 4.45151,-0.83811 1.13857,-0.98835 1.70786,-2.32459 1.70786,-4.01664 0,-1.85809 -0.54557,-3.67664 -1.62089,-5.45566 -1.08322,-1.77112 -2.48272,-3.55014 -4.19849,-5.30544 -2.30877,-2.29296 -4.60964,-4.57802 -6.91842,-6.86307 -2.93341,-2.93341 -4.99707,-5.82729 -6.15937,-8.68163 -1.1702,-2.86225 -1.74739,-5.58217 -1.74739,-8.16769 0,-2.19017 0.38743,-4.12733 1.16229,-5.80356 0.78277,-1.68414 1.81856,-3.02829 3.13108,-4.05617 1.30462,-1.01207 2.84644,-1.69995 4.61755,-2.04785 1.77902,-0.33999 3.67665,-0.26883 5.66124,0.19767 3.5027,0.83021 6.52308,2.53016 9.07697,5.09986 2.54598,2.55388 4.51476,6.18309 5.90635,10.85599 -2.6883,0.97253 -5.3766,1.93715 -8.0649,2.90968 -0.66417,-2.56969 -1.57344,-4.73615 -2.70411,-6.46773 -1.13857,-1.73949 -2.68039,-2.84643 -4.61755,-3.29712 -1.50229,-0.3558 -2.68039,-0.1186 -3.54223,0.71952 -0.86184,0.83811 -1.29671,1.96878 -1.29671,3.36828 0,1.57344 0.4665,3.20224 1.36787,4.87847 0.92509,1.67624 2.32459,3.43944 4.2064,5.28963 2.08738,2.07947 4.15896,4.14314 6.24634,6.23053 2.98876,2.97294 5.21056,5.93798 6.64959,8.87929 1.43903,2.94132 2.15855,6.01705 2.15855,9.22719 z"
     id="path5"
     style="stroke-width:0.790676" />
  <path
     class="cls-2"
     d="m 830.55015,466.53067 c 6.12774,1.2888 12.25549,2.60923 18.38323,3.9771 v 9.1165 c -9.26673,-2.06366 -18.54136,-4.04036 -27.83181,-5.93798 v -59.06352 c 9.29045,1.89762 18.56508,3.87431 27.83181,5.93798 -0.60882,2.90178 -1.22555,5.80356 -1.83437,8.70534 -5.51102,-1.21764 -11.02994,-2.40365 -16.54095,-3.56595 v 14.76193 c 4.59383,0.97253 9.19557,1.95297 13.78149,2.95713 v 9.36952 c -4.58592,-1.00416 -9.18766,-2.00042 -13.78149,-2.95713 v 16.70699 z"
     id="path6"
     style="stroke-width:0.790676" />
  <path
     class="cls-2"
     d="m 802.06999,444.86614 c 2.52226,-1.32043 4.49895,-3.12317 5.9617,-5.43195 1.44694,-2.30087 2.17436,-5.22637 2.17436,-8.7686 0,-2.87015 -0.53766,-5.53473 -1.59717,-7.98583 -1.0595,-2.459 -2.53807,-4.65708 -4.4436,-6.60215 -1.89762,-1.93715 -4.15895,-3.56595 -6.79191,-4.87056 -2.62504,-1.32043 -5.51101,-2.25343 -8.64209,-2.83062 -2.96504,-0.54557 -5.93798,-1.08323 -8.90301,-1.60508 v 59.06353 c 3.1627,0.56138 6.32541,1.13066 9.49602,1.70786 v -19.15019 c 0.3558,-0.0474 0.71951,-0.0949 1.08322,-0.14232 0.56138,-0.0712 1.12276,-0.15023 1.68415,-0.2372 0.56138,-0.0949 1.12276,-0.19767 1.68414,-0.32418 2.71202,7.40073 5.42404,14.80146 8.13606,22.21801 3.49478,0.66417 6.98167,1.35205 10.47646,2.03994 -3.43154,-9.03743 -6.87098,-18.05114 -10.31042,-27.06485 z m -3.89803,-9.60672 c -1.75531,1.5181 -4.23012,2.54598 -7.42445,3.08364 -0.48232,0.0791 -0.95672,0.16604 -1.42322,0.2372 v -21.00827 c 3.80315,0.86975 6.67331,2.32459 8.60256,4.34872 1.92925,2.02413 2.89387,4.33291 2.89387,6.91842 0,2.75155 -0.87765,4.88638 -2.64086,6.41238 z"
     id="path7"
     style="stroke-width:0.790676" />
  <path
     class="cls-2"
     d="m 767.88905,404.69187 v 40.9175 c 0,6.08031 -1.526,10.49228 -4.57801,13.24383 -3.05992,2.75156 -7.08446,3.71618 -12.08154,2.92551 -4.87847,-0.77487 -8.85557,-3.02039 -11.91549,-6.74447 -3.06783,-3.72409 -4.59383,-8.61838 -4.59383,-14.69077 v -40.92541 c 3.17852,0.4665 6.34913,0.94881 9.51974,1.43113 v 40.9254 c 0,3.04411 0.62464,5.51892 1.89763,7.43236 1.26508,1.90553 2.94922,3.02829 5.09195,3.36828 2.24552,0.35581 4.00082,-0.21348 5.258,-1.73158 1.26508,-1.51019 1.89762,-3.77943 1.89762,-6.82354 v -40.9254 c 3.17061,0.52184 6.34123,1.0516 9.50393,1.58926 z"
     id="path8"
     style="stroke-width:0.790676" />
  <path
     class="cls-2"
     d="m 727.03481,398.30321 v 9.1165 c -3.76362,-0.53766 -7.53515,-1.05951 -11.30668,-1.58136 v 49.94703 c -3.17852,-0.43487 -6.36494,-0.85393 -9.53555,-1.27299 v -49.94702 c -3.77153,-0.49022 -7.55096,-0.97254 -11.32249,-1.43113 v -9.1165 c 10.72948,1.32834 21.45896,2.75156 32.16472,4.28547 z"
     id="path9"
     style="stroke-width:0.790676" />
  <path
     class="cls-2"
     d="m 681.17558,432.97437 c 2.73574,2.13482 5.47148,4.28546 8.20722,6.4361 -1.40741,4.39616 -3.48688,7.57468 -6.21472,9.56719 -2.73574,1.98459 -5.9696,2.77527 -9.69369,2.36412 -5.69287,-0.61673 -10.19972,-3.60549 -13.49685,-8.97418 -3.29712,-5.36869 -4.94963,-13.10151 -4.94963,-23.23007 0,-10.12856 1.65251,-17.56092 4.94963,-22.28917 3.29713,-4.72824 7.80398,-6.79191 13.49685,-6.17518 3.72409,0.41115 6.96586,1.90553 9.73323,4.46732 2.76736,2.5697 4.82312,6.27797 6.17518,11.10901 -2.73574,1.49437 -5.47148,3.00457 -8.20722,4.51476 -0.73533,-3.29712 -1.7474,-5.83519 -3.04411,-7.63794 -1.29671,-1.80274 -2.85434,-2.8148 -4.65708,-3.00457 -2.70411,-0.30045 -4.84685,1.21765 -6.42029,4.53849 -1.58135,3.31293 -2.37994,8.46814 -2.37994,15.44191 0,6.97376 0.79068,12.27129 2.37994,15.9005 1.57344,3.6292 3.71618,5.58217 6.42029,5.88263 1.80274,0.19767 3.36037,-0.4665 4.65708,-1.97669 1.29671,-1.51019 2.30878,-3.82688 3.04411,-6.95005 z"
     id="path10"
     style="stroke-width:0.790676" />
  <path
     class="cls-2"
     d="m 643.75287,388.55417 v 59.06352 c -3.19434,-0.29255 -6.38867,-0.57719 -9.57509,-0.84602 v -59.06352 c 3.19433,0.26883 6.38866,0.55347 9.57509,0.84602 z"
     id="path11"
     style="stroke-width:0.790676" />
  <path
     class="cls-2"
     d="m 622.34135,397.54416 c -1.09904,-2.39575 -2.65667,-4.46732 -4.66499,-6.22262 -2.00832,-1.7474 -4.39616,-3.1548 -7.17143,-4.19059 -2.77528,-1.03578 -5.79566,-1.66833 -9.07697,-1.8739 -2.99666,-0.19767 -6.00123,-0.37953 -9.0058,-0.56138 v 59.06352 c 3.20224,0.18976 6.40448,0.38743 9.5909,0.59301 v -18.14602 c 0.51394,-0.13442 1.01997,-0.26093 1.53391,-0.40325 2.93341,-0.7037 5.66125,-1.61298 8.1835,-2.72783 2.52226,-1.11486 4.68081,-2.47482 6.48355,-4.07989 1.81065,-1.60507 3.22596,-3.5106 4.24593,-5.70078 1.01207,-2.19808 1.52601,-4.7915 1.52601,-7.77235 0,-2.98085 -0.55348,-5.59008 -1.66042,-7.97001 z m -10.6346,14.18473 c -1.86599,1.81065 -4.46732,3.19434 -7.81188,4.14315 -0.61673,0.18976 -1.24136,0.37161 -1.86599,0.56138 v -22.02034 c 4.07198,0.37953 7.17143,1.5181 9.29044,3.40782 2.12692,1.89762 3.18643,4.23011 3.18643,6.98167 0,2.75155 -0.933,5.12358 -2.799,6.92632 z"
     id="path12"
     style="stroke-width:0.790676" />
  <path
     class="cls-2"
     d="m 570.52833,438.07423 c 0,1.38368 -0.49813,2.53807 -1.49438,3.47107 -0.99625,0.92509 -2.17436,1.35996 -3.52641,1.29671 -1.3916,-0.0633 -2.57761,-0.5851 -3.55805,-1.59717 -0.98044,-1.01206 -1.46275,-2.20599 -1.46275,-3.59758 0,-1.39159 0.49022,-2.49063 1.46275,-3.43944 0.97253,-0.95672 2.15855,-1.3995 3.55805,-1.34415 1.35205,0.0553 2.52225,0.60092 3.52641,1.64461 1.00416,1.04369 1.49438,2.2218 1.49438,3.56595 z"
     id="path13"
     style="stroke-width:0.790676" />
  <path
     class="cls-2"
     d="m 555.62408,426.30896 c 0,2.30878 -0.42696,4.44361 -1.28089,6.40448 -0.85394,1.96879 -2.00832,3.64502 -3.48689,5.0287 -1.47066,1.37578 -3.17852,2.46691 -5.13939,3.25759 -1.95297,0.78277 -4.00873,1.14648 -6.15937,1.09113 -4.02455,-0.11069 -7.49561,-1.31252 -10.4053,-3.62129 -2.9176,-2.30878 -5.12359,-5.83519 -6.58634,-10.58716 2.65668,-1.55763 5.32125,-3.11526 7.98583,-4.66499 0.84603,2.94922 1.99251,5.27381 3.43945,6.99749 1.43903,1.73158 3.37618,2.60923 5.81937,2.67248 1.866,0.0554 3.3841,-0.53766 4.54639,-1.76321 1.1623,-1.23345 1.73949,-2.6883 1.73949,-4.38034 0,-1.85809 -0.55347,-3.56595 -1.65251,-5.11568 -1.10695,-1.54972 -2.53807,-3.02038 -4.29338,-4.42779 -2.35621,-1.80274 -4.70452,-3.60548 -7.05283,-5.40032 -3.00457,-2.31668 -5.10777,-4.77568 -6.29378,-7.38491 -1.19392,-2.60924 -1.77902,-5.21056 -1.77902,-7.79607 0,-2.19018 0.39533,-4.21431 1.18601,-6.04868 0.79858,-1.84227 1.85018,-3.40781 3.19433,-4.70452 1.32834,-1.30462 2.90179,-2.30878 4.71243,-3.02038 1.81065,-0.71952 3.7399,-1.0516 5.77985,-0.99626 3.57386,0.10279 6.65749,1.1623 9.25882,3.18643 2.60132,2.03204 4.61755,5.23428 6.03286,9.61462 -2.75155,1.52601 -5.4952,3.06783 -8.24676,4.61755 -0.67207,-2.44319 -1.59716,-4.41197 -2.75946,-5.90635 -1.16229,-1.49438 -2.73574,-2.27715 -4.72033,-2.32459 -1.52601,-0.0474 -2.73574,0.45069 -3.61339,1.46275 -0.87766,1.01998 -1.32043,2.23762 -1.32043,3.64502 0,1.57345 0.4744,3.10736 1.39949,4.58592 0.94091,1.48648 2.36413,2.95713 4.29338,4.41989 2.12692,1.62879 4.24593,3.26549 6.37285,4.90219 3.05991,2.34831 5.32125,4.84685 6.79191,7.4798 1.47856,2.64086 2.21389,5.56636 2.21389,8.7686 z"
     id="path14"
     style="stroke-width:0.790676" />
  <path
     class="cls-2"
     d="m 510.53181,388.68068 c -3.36828,-5.09196 -7.92258,-7.64584 -13.64707,-7.65375 -5.71659,0 -10.27089,2.56179 -13.63917,7.64584 -3.36828,5.09986 -5.06033,12.70617 -5.06033,22.83473 0,10.12857 1.67623,17.67953 5.02079,22.69241 3.33666,5.00499 7.90677,7.49562 13.67871,7.49562 5.77193,0 10.34204,-2.49063 13.69451,-7.49562 3.33665,-5.00498 5.01289,-12.56384 5.01289,-22.69241 0,-10.12856 -1.69205,-17.73487 -5.06033,-22.82682 z m -7.05283,38.56128 c -1.62089,3.51061 -3.81106,5.25009 -6.59424,5.25009 -2.78319,0 -4.96545,-1.74739 -6.58634,-5.25799 -1.61298,-3.5027 -2.41947,-8.7686 -2.41947,-15.80562 0,-7.03702 0.80649,-12.31874 2.41947,-15.86888 1.62089,-3.55014 3.81106,-5.32916 6.58634,-5.32916 2.77527,0 4.97335,1.77902 6.59424,5.32916 1.61298,3.55014 2.41947,8.83976 2.41947,15.86888 0,7.02911 -0.80649,12.30292 -2.41947,15.81352 z"
     id="path15"
     style="stroke-width:0.790676" />
  <path
     class="cls-2"
     d="m 461.69964,416.25156 c 2.54598,-1.85809 4.5622,-4.07989 6.03286,-6.70493 1.47066,-2.60924 2.20599,-5.68497 2.20599,-9.2272 0,-2.87015 -0.53766,-5.42404 -1.61298,-7.65374 -1.07532,-2.2218 -2.57761,-4.11152 -4.49895,-5.64543 -1.92925,-1.53391 -4.22221,-2.6804 -6.88679,-3.43154 -2.66458,-0.75114 -5.58218,-1.07532 -8.74488,-0.98044 -3.00457,0.0949 -6.00914,0.18977 -9.01371,0.29255 v 59.06353 c 3.20223,-0.11861 6.40447,-0.21349 9.59881,-0.30837 V 422.4979 c 0.37161,-0.1265 0.73533,-0.2451 1.10694,-0.37161 0.56929,-0.18977 1.13067,-0.37953 1.69996,-0.59301 0.56928,-0.20558 1.13066,-0.44278 1.70786,-0.67998 2.74365,6.81563 5.4952,13.64707 8.24675,20.47061 3.54223,-0.0791 7.07656,-0.14232 10.61879,-0.19767 -3.47898,-8.3021 -6.96586,-16.58839 -10.45275,-24.86677 z m -3.95338,-8.7686 c -1.77903,1.89762 -4.28547,3.45526 -7.51934,4.6729 -0.48231,0.18976 -0.96462,0.36371 -1.44693,0.55347 v -21.00827 c 3.8585,0.0554 6.76028,0.89347 8.72116,2.50645 1.95297,1.61297 2.9255,3.71617 2.9255,6.30959 0,2.75156 -0.89347,5.07614 -2.68039,6.97377 z"
     id="path16"
     style="stroke-width:0.790676" />
  <path
     class="cls-2"
     d="m 427.76381,414.67812 c -1.67623,-2.26134 -3.98501,-3.83478 -6.92633,-4.71244 1.75531,-1.54181 3.11527,-3.2813 4.07199,-5.20265 0.97253,-1.92925 1.44694,-3.85059 1.44694,-5.76403 0,-4.72033 -1.91344,-8.4207 -5.73241,-11.07737 -3.81896,-2.66458 -8.93464,-3.83478 -15.33121,-3.47107 -2.71993,0.15813 -5.43195,0.30836 -8.15188,0.48231 v 59.06352 c 2.77528,-0.17394 5.55055,-0.33208 8.32583,-0.49812 3.73199,-0.20558 7.1319,-0.87765 10.19181,-2.01623 3.05202,-1.13857 5.66125,-2.60923 7.81189,-4.42778 2.15064,-1.80275 3.81896,-3.92176 5.01288,-6.33332 1.18602,-2.41156 1.77903,-5.0287 1.77903,-7.84351 0,-3.21015 -0.83812,-5.94589 -2.50645,-8.20722 z m -21.11106,-21.2771 c 3.23387,0 5.75612,0.57719 7.5984,1.74739 1.83437,1.17811 2.75946,2.86225 2.75946,5.05242 0,2.19018 -0.76696,3.94548 -2.29296,5.6059 -1.52601,1.65251 -3.70037,2.83853 -6.53889,3.55013 -0.50604,0.14233 -1.01207,0.27674 -1.52601,0.41906 v -16.367 z m 10.10484,37.6441 c -2.65667,2.07947 -6.02495,3.21805 -10.10484,3.44734 v -15.94794 c 0.96463,-0.27673 1.92925,-0.56138 2.89388,-0.83811 3.05201,-0.89347 5.68496,-0.83021 7.89885,0.18976 2.20599,1.01206 3.30503,2.85434 3.30503,5.4952 0,3.0362 -1.33624,5.59008 -3.99292,7.65375 z"
     id="path17"
     style="stroke-width:0.790676" />
  <path
     class="cls-2"
     d="m 357.10897,421.88908 c 2.53807,-2.01622 4.54639,-4.38034 6.01705,-7.08446 1.47066,-2.71202 2.20598,-5.83519 2.20598,-9.38532 0,-2.87016 -0.54556,-5.3766 -1.61297,-7.55096 -1.07532,-2.15064 -2.5697,-3.94548 -4.49105,-5.35288 -1.92134,-1.41531 -4.20639,-2.41157 -6.86307,-2.98876 -2.65667,-0.57719 -5.56636,-0.71951 -8.72906,-0.41906 -2.99667,0.27674 -5.99333,0.5772 -8.98209,0.87765 v 59.06353 c 3.19434,-0.32418 6.38076,-0.63254 9.56719,-0.94091 v -19.15018 c 0.37161,-0.15023 0.73533,-0.29255 1.09904,-0.44278 0.56928,-0.22139 1.13066,-0.45859 1.69995,-0.7037 0.56929,-0.24511 1.13067,-0.52185 1.69995,-0.79068 2.73575,6.64168 5.47939,13.28337 8.22304,19.94086 3.52642,-0.30046 7.06074,-0.59301 10.59506,-0.88556 -3.47897,-8.0728 -6.95004,-16.12979 -10.42902,-24.19469 z m -3.93757,-8.51558 c -1.77902,2.01622 -4.28546,3.73199 -7.50352,5.16312 -0.48231,0.20557 -0.96462,0.42696 -1.43903,0.64044 v -21.00827 c 3.84269,-0.19767 6.73657,0.4586 8.68954,1.94507 1.95297,1.47856 2.9255,3.52641 2.91759,6.10402 0,2.75946 -0.89346,5.1473 -2.66458,7.15562 z"
     id="path18"
     style="stroke-width:0.790676" />
  <path
     class="cls-2"
     d="m 305.80198,443.08712 c 6.19891,-0.73533 12.40571,-1.43113 18.61252,-2.0953 v 9.1086 c -9.39323,1.00415 -18.78647,2.09529 -28.16389,3.26549 v -59.06352 c 9.38533,-1.1702 18.77857,-2.25343 28.16389,-3.25759 -0.61672,3.09945 -1.24136,6.20681 -1.85809,9.30626 -5.59008,0.60091 -11.17225,1.24136 -16.75443,1.89762 v 14.76193 c 4.64918,-0.55347 9.30626,-1.07532 13.95544,-1.58926 v 9.36952 c -4.64918,0.50603 -9.30626,1.03578 -13.95544,1.58926 z"
     id="path19"
     style="stroke-width:0.790676" />
  <path
     class="cls-2"
     d="m 283.91606,395.88374 v 59.06352 c -3.13108,0.41115 -6.25425,0.83812 -9.37742,1.26508 -5.12358,-11.52015 -10.23926,-23.02449 -15.34703,-34.50511 v 36.70319 c -3.09154,0.4586 -6.18309,0.9251 -9.26672,1.39159 V 400.7464 c 3.11526,-0.48231 6.23053,-0.95672 9.3537,-1.41531 5.11567,11.47271 10.23135,22.98496 15.34702,34.50511 v -36.69529 c 3.09155,-0.42696 6.191,-0.84602 9.29045,-1.25717 z"
     id="path20"
     style="stroke-width:0.790676" />
  <path
     class="cls-2"
     d="m 230.80633,437.8054 c 2.52226,-2.2139 4.51476,-4.73615 5.97751,-7.56677 1.45485,-2.82272 2.19018,-6.00914 2.19018,-9.54347 0,-2.87015 -0.53766,-5.34497 -1.60507,-7.42445 -1.06742,-2.07948 -2.54598,-3.7478 -4.45942,-5.00498 -1.90553,-1.26508 -4.17477,-2.08739 -6.80772,-2.4511 -2.63295,-0.37161 -5.51892,-0.28464 -8.66582,0.26093 -2.96503,0.52184 -5.93797,1.04369 -8.90301,1.58135 v 59.06352 c 3.17061,-0.57719 6.33332,-1.13066 9.50393,-1.68414 V 445.8782 c 0.36371,-0.18185 0.71951,-0.34789 1.08323,-0.52975 0.56928,-0.26092 1.12276,-0.55347 1.69204,-0.83812 0.56138,-0.30045 1.11486,-0.60091 1.67624,-0.93299 2.71992,6.42819 5.43985,12.85639 8.15978,19.2925 3.5106,-0.5851 7.0133,-1.14648 10.5239,-1.71577 -3.45526,-7.80397 -6.90261,-15.59214 -10.34995,-23.37239 z m -3.91385,-8.20722 c -1.7632,2.15064 -4.24593,4.07198 -7.44026,5.74031 -0.47441,0.25301 -0.95672,0.50603 -1.42322,0.75905 v -21.00827 c 3.80316,-0.49813 6.68122,-0.0712 8.61837,1.26508 1.92925,1.33624 2.90179,3.29712 2.90179,5.88263 0,2.75946 -0.88556,5.21056 -2.64877,7.3612 z"
     id="path21"
     style="stroke-width:0.790676" />
  <path
     class="cls-2"
     d="m 188.56049,411.39681 c -4.24593,0.8144 -8.49186,1.66042 -12.72988,2.51435 -3.93757,20.47852 -7.87514,40.97285 -11.8048,61.4909 3.12317,-0.64836 6.24634,-1.29671 9.36951,-1.92925 0.6958,-3.82687 1.39159,-7.65375 2.09529,-11.48062 4.35663,-0.87765 8.72116,-1.73949 13.06988,-2.57761 0.6958,3.55014 1.3995,7.10028 2.1032,10.65041 3.24178,-0.61672 6.48355,-1.23345 9.72532,-1.83437 -3.94547,-18.95251 -7.88304,-37.88921 -11.82852,-56.818 z m -11.31457,41.12308 c 1.59716,-8.72907 3.18642,-17.45814 4.78359,-26.18721 1.58926,8.09653 3.17852,16.19306 4.77568,24.28958 -3.18642,0.61673 -6.37285,1.24927 -9.55137,1.88972 z"
     id="path22"
     style="stroke-width:0.790676" />
  <path
     class="cls-2"
     d="m 162.51562,416.6469 c -4.01664,20.53386 -8.01746,41.07564 -12.0341,61.64113 -3.17061,0.68789 -6.34913,1.39159 -9.51183,2.1111 -2.36413,-11.98665 -4.72825,-23.9654 -7.09237,-35.93624 -2.36412,13.05407 -4.72034,26.12395 -7.08446,39.18592 -3.17061,0.74324 -6.33332,1.49438 -9.49602,2.25343 -3.9692,-18.73903 -7.93839,-37.44643 -11.89178,-56.15383 3.24178,-0.80649 6.48355,-1.59717 9.73323,-2.38785 2.43528,12.21595 4.87847,24.41609 7.32166,36.63995 2.38784,-13.36243 4.77569,-26.71696 7.16353,-40.07148 2.94132,-0.67998 5.89845,-1.35996 8.83976,-2.02413 2.39575,12.24757 4.78359,24.51887 7.17934,36.77435 2.48273,-13.34661 4.95754,-26.67742 7.44027,-40.01613 3.13898,-0.67998 6.29378,-1.35205 9.44067,-2.01622 z"
     id="path23"
     style="stroke-width:0.790676" />
  <path
     class="cls-3"
     d="m 614.49784,404.80257 c 0,2.81481 -0.933,5.12358 -2.79899,6.92632 -1.866,1.81065 -4.46732,3.19434 -7.81189,4.14315 -0.61672,0.18976 -1.24136,0.37161 -1.86599,0.56138 v -22.02034 c 4.07198,0.37953 7.17143,1.5181 9.29045,3.40782 2.12692,1.89762 3.18642,4.23011 3.18642,6.98167 z"
     id="path24"
     style="stroke-width:0.790676" />
  <path
     class="cls-3"
     d="m 505.89845,411.42844 c 0,7.03702 -0.80649,12.30292 -2.41947,15.81352 -1.62089,3.51061 -3.81106,5.25009 -6.59424,5.25009 -2.78319,0 -4.96545,-1.74739 -6.58634,-5.25799 -1.61298,-3.5027 -2.41947,-8.7686 -2.41947,-15.80562 0,-7.03702 0.80649,-12.31874 2.41947,-15.86888 1.62089,-3.55014 3.81106,-5.32916 6.58634,-5.32916 2.77527,0 4.97335,1.77902 6.59424,5.32916 1.61298,3.55014 2.41947,8.83976 2.41947,15.86888 z"
     id="path25"
     style="stroke-width:0.790676" />
  <path
     class="cls-3"
     d="m 460.42665,400.5092 c 0,2.75155 -0.89347,5.07614 -2.68039,6.97376 -1.77903,1.89762 -4.28547,3.45526 -7.51934,4.6729 -0.48231,0.18976 -0.96462,0.36371 -1.44693,0.55347 v -21.00827 c 3.8585,0.0554 6.76028,0.89347 8.72116,2.50645 1.95297,1.61297 2.9255,3.71617 2.9255,6.30959 z"
     id="path26"
     style="stroke-width:0.790676" />
  <path
     class="cls-3"
     d="m 417.01061,400.20083 c 0,2.08739 -0.76696,3.94548 -2.29296,5.6059 -1.52601,1.65251 -3.70037,2.83853 -6.53889,3.55013 -0.50604,0.14233 -1.01207,0.27674 -1.52601,0.41906 v -16.367 c 3.23387,0 5.75612,0.5772 7.5984,1.7474 1.83437,1.1781 2.75946,2.86225 2.75946,5.05242 z"
     id="path27"
     style="stroke-width:0.790676" />
  <path
     class="cls-3"
     d="m 670.08239,565.20708 c -17.86929,20.59712 -47.13222,52.01859 -78.79881,76.49003 V 473.27514 c -20.79478,-1.17811 -41.60539,-1.96878 -62.42389,-2.3404 v 291.0954 c 99.30104,-51.12513 213.26122,-171.82978 258.56697,-265.59609 -20.16224,-3.63711 -40.36402,-6.91842 -60.62115,-9.78857 -13.3308,24.59003 -33.76979,52.0265 -56.72312,78.55369 v 0 z"
     id="path28"
     style="stroke-width:0.790676" />
  <path
     class="cls-3"
     d="m 591.28358,230.22914 c 31.26335,0 132.39085,31.97495 132.39085,72.3627 0,14.55635 -12.84849,35.41439 -52.84881,56.42266 l -25.2542,13.54429 c 51.16467,4.61755 102.16329,11.67829 152.82193,21.18222 -7.31376,-10.99041 -19.01577,-19.93295 -35.21673,-27.72902 22.62125,-25.04863 27.43647,-43.27372 27.43647,-65.30987 0,-31.20009 -25.77605,-58.96864 -63.26201,-82.82335 -22.64497,-14.41403 -57.30823,-31.86425 -107.86407,-45.95411 -29.08108,-7.81188 -59.41933,-12.56384 -90.62732,-13.9159 v 208.28787 c 20.8185,0.37162 41.62911,1.13857 62.42389,2.31668 V 230.24495 Z"
     id="path29"
     style="stroke-width:0.790676" />
  <path
     class="cls-3"
     d="M 469.93849,366.28872 V 157.99295 c -21.37199,2.07948 -42.49886,5.76403 -64.0606,11.30667 l 1.5181,199.34532 c 20.83432,-1.19392 41.68445,-1.97669 62.5425,-2.36412 v 0 z"
     id="path30"
     style="stroke-width:0.790676" />
  <path
     class="cls-3"
     d="m 420.75051,423.39137 c 0,3.0362 -1.33624,5.59008 -3.99292,7.65375 -2.65667,2.07947 -6.02495,3.21805 -10.10484,3.44734 v -15.94794 c 0.96463,-0.27673 1.92925,-0.56138 2.89388,-0.83811 3.05201,-0.89347 5.68496,-0.83021 7.89885,0.18976 2.20599,1.01206 3.30503,2.85434 3.30503,5.4952 z"
     id="path31"
     style="stroke-width:0.790676" />
  <path
     class="cls-3"
     d="m 233.08348,388.18255 c -11.47271,-33.81723 -21.30082,-69.65068 -29.73734,-107.63477 -16.4856,14.81728 -32.86841,31.41357 -48.84008,50.01028 5.78776,23.93377 12.19223,46.79223 19.23716,68.67024 19.72737,-4.06408 39.5101,-7.73281 59.34026,-11.05366 v 0 z"
     id="path32"
     style="stroke-width:0.790676" />
  <path
     class="cls-3"
     d="m 355.63831,372.47972 c -10.83226,-57.29241 -18.04323,-117.2494 -21.60918,-177.29336 -19.83807,8.91092 -40.87797,19.94877 -62.44762,33.61165 3.98501,52.99904 10.32623,102.94606 19.39529,150.78198 21.5143,-2.8069 43.07605,-5.17102 64.66151,-7.10818 v 0 z"
     id="path33"
     style="stroke-width:0.790676" />
  <path
     class="cls-3"
     d="m 800.81282,428.84704 c 0,2.75155 -0.87766,4.88638 -2.64086,6.41238 -1.75531,1.5181 -4.23012,2.54598 -7.42445,3.08364 -0.48232,0.0791 -0.95672,0.16604 -1.42322,0.2372 v -21.00827 c 3.80315,0.86975 6.67331,2.32459 8.60256,4.34872 1.92925,2.02413 2.89387,4.33291 2.89387,6.91842 z"
     id="path34"
     style="stroke-width:0.790676" />
  <path
     class="cls-3"
     d="m 408.77967,550.87212 -2.69621,1.57344 c -9.66206,-24.41608 -18.37531,-50.29492 -26.16348,-77.25698 -21.52221,1.60507 -43.01279,3.6292 -64.47175,6.0882 6.10403,20.65247 12.81687,41.02029 20.25713,61.1351 l -20.14643,11.67038 c -15.14145,-21.20594 -28.74899,-43.76393 -41.08354,-67.57911 -20.73154,2.9176 -41.41563,6.26216 -62.05228,9.99415 25.83139,53.33112 57.15008,99.87033 94.64396,141.45991 l 55.50547,-33.18469 c 27.19136,56.65987 65.39685,112.56859 107.36595,157.26553 V 470.99008 c -20.58922,0.37953 -41.17843,1.18602 -61.74392,2.34831 l 0.59301,77.54163 z"
     id="path35"
     style="stroke-width:0.790676" />
  <path
     class="cls-3"
     d="m 229.54125,422.23698 c 0,2.75946 -0.88556,5.21056 -2.64877,7.3612 -1.7632,2.15064 -4.24593,4.07198 -7.44026,5.74031 -0.47441,0.25301 -0.95672,0.50603 -1.42322,0.75905 v -21.00827 c 3.80316,-0.49813 6.68122,-0.0712 8.61837,1.26508 1.92925,1.33624 2.90179,3.29712 2.90179,5.88263 z"
     id="path36"
     style="stroke-width:0.790676" />
  <path
     class="cls-3"
     d="m 355.83598,406.21788 c 0,2.75946 -0.89346,5.1473 -2.66458,7.15562 -1.77902,2.01622 -4.28546,3.73199 -7.50352,5.16312 -0.48231,0.20557 -0.96462,0.42696 -1.43903,0.64044 v -21.00827 c 3.84269,-0.19767 6.73657,0.4586 8.68954,1.94507 1.95297,1.47856 2.9255,3.52641 2.91759,6.10402 z"
     id="path37"
     style="stroke-width:0.790676" />
  <path
     class="cls-3"
     d="m 186.80519,450.63017 c -3.18642,0.61673 -6.37285,1.24927 -9.55137,1.88972 1.59717,-8.72907 3.18643,-17.45814 4.78359,-26.18721 1.58926,8.09653 3.17852,16.19306 4.77569,24.28958 z"
     id="path38"
     style="stroke-width:0.790676" />
</svg>
